<svg xmlns="http://www.w3.org/2000/svg" xmlns:xlink="http://www.w3.org/1999/xlink" xmlns:lucid="lucid" width="1760" height="1360"><g transform="translate(0 0)" lucid:page-tab-id="0_0"><path d="M0 0h1760v1360H0z" fill="#fff"/><path d="M611.6 61.27c0-4.42 3.6-8 8-8H1312c4.42 0 8 3.58 8 8V112c0 4.42-3.58 8-8 8H619.6c-4.4 0-8-3.58-8-8z" stroke="#000" stroke-opacity="0" stroke-width="2" fill="#fff" fill-opacity="0"/><use xlink:href="#a" transform="matrix(1,0,0,1,615.6089147274068,57.266666666666666) translate(47.556296296296296 34.72027777777778)"/><use xlink:href="#b" transform="matrix(1,0,0,1,615.6089147274068,57.266666666666666) translate(139.26123456790123 34.72027777777778)"/><use xlink:href="#c" transform="matrix(1,0,0,1,615.6089147274068,57.266666666666666) translate(308.03037037037035 34.72027777777778)"/><use xlink:href="#d" transform="matrix(1,0,0,1,615.6089147274068,57.266666666666666) translate(440.3069135802469 34.72027777777778)"/><use xlink:href="#e" transform="matrix(1,0,0,1,615.6089147274068,57.266666666666666) translate(555.3204938271605 34.72027777777778)"/><path d="M711.57 109.77l533.92 1.37M711.6 109.77h-1.03" stroke="#b2b2b2" stroke-width="2" fill="none"/><path d="M1249.5 110.15v1h-4.04v-1z" fill="#b2b2b2"/><path d="M680 119.15c0-4.42 3.58-8 8-8h564.97c4.42 0 8 3.58 8 8v15.25c0 4.4-3.58 8-8 8H688c-4.42 0-8-3.6-8-8z" stroke="#000" stroke-opacity="0" stroke-width="2" fill="#fff" fill-opacity="0"/><use xlink:href="#f" transform="matrix(1,0,0,1,684,115.1466666666667) translate(166.52610082304528 16.417037037037037)"/><use xlink:href="#g" transform="matrix(1,0,0,1,684,115.1466666666667) translate(217.34379629629632 16.417037037037037)"/><use xlink:href="#h" transform="matrix(1,0,0,1,684,115.1466666666667) translate(275.85212962962964 16.417037037037037)"/><use xlink:href="#i" transform="matrix(1,0,0,1,684,115.1466666666667) translate(288.30161522633745 16.417037037037037)"/><use xlink:href="#j" transform="matrix(1,0,0,1,684,115.1466666666667) translate(353.60830246913577 16.417037037037037)"/><use xlink:href="#k" transform="matrix(1,0,0,1,684,115.1466666666667) translate(379.10212962962964 16.417037037037037)"/><path d="M60 640c0 11.05-8.95 20-20 20s-20-8.95-20-20 8.95-20 20-20 20 8.95 20 20zM120 588c0-4.42 3.58-8 8-8h144c4.42 0 8 3.58 8 8v104c0 4.42-3.58 8-8 8H128c-4.42 0-8-3.58-8-8z" stroke="#333" fill="#fff"/><use xlink:href="#l" transform="matrix(1,0,0,1,120,580) translate(43.205000000000005 63.15)"/><use xlink:href="#m" transform="matrix(1,0,0,1,120,580) translate(84.805 63.15)"/><path d="M61 640h42.12" stroke="#333" fill="none"/><path d="M61 640.5h-.56l.06-.48-.02-.52H61z" fill="#333"/><path d="M117.88 640l-14.26 4.64v-9.28z" stroke="#333" fill="#333"/><path d="M725.6 168c0-4.42 3.58-8 8-8H1052c4.42 0 8 3.58 8 8v224c0 4.42-3.58 8-8 8H733.6c-4.42 0-8-3.58-8-8z" stroke="#333" fill="#fff"/><use xlink:href="#n" transform="matrix(1,0,0,1,725.5999999999999,160) translate(103.58 126.9)"/><use xlink:href="#o" transform="matrix(1,0,0,1,725.5999999999999,160) translate(170.53 126.9)"/><path d="M928 185.14c0-4.42 3.58-8 8-8h70.4c4.42 0 8 3.58 8 8v61.68c0 4.42-3.58 8-8 8H936c-4.42 0-8-3.58-8-8z" stroke="#333" fill="#fff"/><path d="M908 194.56c0-4.42 3.58-8 8-8h24c4.42 0 8 3.58 8 8v4c0 4.42-3.58 8-8 8h-24c-4.42 0-8-3.58-8-8zM908 233.4c0-4.42 3.58-8 8-8h24c4.42 0 8 3.58 8 8v4c0 4.42-3.58 8-8 8h-24c-4.42 0-8-3.58-8-8z" stroke="#333" fill="#fff"/><use xlink:href="#p" transform="matrix(1,0,0,1,929.28,184.91071428571428) translate(16.025 35.1)"/><path d="M928 322.3c0-4.43 3.58-8 8-8h70.4c4.42 0 8 3.57 8 8v61.66c0 4.42-3.58 8-8 8H936c-4.42 0-8-3.58-8-8z" stroke="#333" fill="#fff"/><path d="M908 331.7c0-4.4 3.58-8 8-8h24c4.42 0 8 3.6 8 8v4c0 4.42-3.58 8-8 8h-24c-4.42 0-8-3.58-8-8zM908 370.54c0-4.4 3.58-8 8-8h24c4.42 0 8 3.6 8 8v4c0 4.42-3.58 8-8 8h-24c-4.42 0-8-3.58-8-8z" stroke="#333" fill="#fff"/><use xlink:href="#q" transform="matrix(1,0,0,1,929.28,322.05357142857144) translate(7.524999999999999 35.1)"/><path d="M700 236.57c0-4.42 3.58-8 8-8h85.6c4.42 0 8 3.58 8 8v86.86c0 4.42-3.58 8-8 8H708c-4.42 0-8-3.58-8-8z" stroke="#333" fill="#fff"/><path d="M680 252.3c0-4.43 3.58-8 8-8h24c4.42 0 8 3.57 8 8v4c0 4.4-3.58 8-8 8h-24c-4.42 0-8-3.6-8-8zM680 303.7c0-4.4 3.58-8 8-8h24c4.42 0 8 3.6 8 8v4c0 4.43-3.58 8-8 8h-24c-4.42 0-8-3.57-8-8z" stroke="#333" fill="#fff"/><use xlink:href="#r" transform="matrix(1,0,0,1,704.32,238.85714285714286) translate(-11.450000000000003 45.1)"/><path d="M1388 648c0-4.42 3.58-8 8-8h336c4.42 0 8 3.58 8 8v204c0 4.42-3.58 8-8 8h-336c-4.42 0-8-3.58-8-8z" stroke="#333" fill="#fff"/><use xlink:href="#s" transform="matrix(1,0,0,1,1388,640) translate(120.605 110.65)"/><use xlink:href="#o" transform="matrix(1,0,0,1,1388,640) translate(171.505 110.65)"/><path d="M1600 663.7c0-4.4 3.58-8 8-8h76c4.42 0 8 3.6 8 8v55.22c0 4.42-3.58 8-8 8h-76c-4.42 0-8-3.58-8-8z" stroke="#333" fill="#fff"/><path d="M1580 671.52c0-4.42 3.58-8 8-8h24c4.42 0 8 3.58 8 8v4c0 4.4-3.58 8-8 8h-24c-4.42 0-8-3.6-8-8zM1580 707.12c0-4.42 3.58-8 8-8h24c4.42 0 8 3.58 8 8v4c0 4.42-3.58 8-8 8h-24c-4.42 0-8-3.58-8-8z" stroke="#333" fill="#fff"/><use xlink:href="#p" transform="matrix(1,0,0,1,1602.4,662.8348214285714) translate(18.025 32.1)"/><path d="M1600 789.43c0-4.42 3.58-8 8-8h76c4.42 0 8 3.58 8 8v55.2c0 4.42-3.58 8-8 8h-76c-4.42 0-8-3.58-8-8z" stroke="#333" fill="#fff"/><path d="M1580 797.23c0-4.42 3.58-8 8-8h24c4.42 0 8 3.58 8 8v4c0 4.42-3.58 8-8 8h-24c-4.42 0-8-3.58-8-8zM1580 832.83c0-4.42 3.58-8 8-8h24c4.42 0 8 3.58 8 8v4c0 4.42-3.58 8-8 8h-24c-4.42 0-8-3.58-8-8z" stroke="#333" fill="#fff"/><use xlink:href="#q" transform="matrix(1,0,0,1,1602.4,788.5491071428571) translate(9.524999999999999 32.1)"/><path d="M1360 710.86c0-4.42 3.58-8 8-8h92c4.42 0 8 3.58 8 8v78.28c0 4.42-3.58 8-8 8h-92c-4.42 0-8-3.58-8-8z" stroke="#333" fill="#fff"/><path d="M1340 724.43c0-4.42 3.58-8 8-8h24c4.42 0 8 3.58 8 8v4c0 4.42-3.58 8-8 8h-24c-4.42 0-8-3.58-8-8zM1340 771.57c0-4.42 3.58-8 8-8h24c4.42 0 8 3.58 8 8v4c0 4.42-3.58 8-8 8h-24c-4.42 0-8-3.58-8-8z" stroke="#333" fill="#fff"/><use xlink:href="#r" transform="matrix(1,0,0,1,1365.6,712.2857142857143) translate(-9.450000000000003 41.6)"/><path d="M203.22 848c0-4.42 3.58-8 8-8h144c4.42 0 8 3.58 8 8v104c0 4.42-3.58 8-8 8h-144c-4.42 0-8-3.58-8-8z" stroke="#333" fill="#fff"/><use xlink:href="#t" transform="matrix(1,0,0,1,203.21782945492305,840) translate(29.055 63.15)"/><use xlink:href="#o" transform="matrix(1,0,0,1,203.21782945492305,840) translate(71.055 63.15)"/><path d="M1370.4 208c0-4.42 3.58-8 8-8H1732c4.42 0 8 3.58 8 8v224c0 4.42-3.58 8-8 8h-353.6c-4.42 0-8-3.58-8-8z" stroke="#333" fill="#fff"/><use xlink:href="#u" transform="matrix(1,0,0,1,1370.4,200) translate(105.955 126.9)"/><use xlink:href="#o" transform="matrix(1,0,0,1,1370.4,200) translate(204.155 126.9)"/><path d="M1592 225.14c0-4.42 3.58-8 8-8h81.6c4.42 0 8 3.58 8 8v61.68c0 4.42-3.58 8-8 8H1600c-4.42 0-8-3.58-8-8z" stroke="#333" fill="#fff"/><path d="M1572 234.56c0-4.42 3.58-8 8-8h24c4.42 0 8 3.58 8 8v4c0 4.42-3.58 8-8 8h-24c-4.42 0-8-3.58-8-8zM1572 273.4c0-4.42 3.58-8 8-8h24c4.42 0 8 3.58 8 8v4c0 4.42-3.58 8-8 8h-24c-4.42 0-8-3.58-8-8z" stroke="#333" fill="#fff"/><use xlink:href="#p" transform="matrix(1,0,0,1,1595.52,224.9107142857143) translate(20.025 35.1)"/><path d="M1592 362.3c0-4.43 3.58-8 8-8h81.6c4.42 0 8 3.57 8 8v61.66c0 4.42-3.58 8-8 8H1600c-4.42 0-8-3.58-8-8z" stroke="#333" fill="#fff"/><path d="M1572 371.7c0-4.4 3.58-8 8-8h24c4.42 0 8 3.6 8 8v4c0 4.42-3.58 8-8 8h-24c-4.42 0-8-3.58-8-8zM1572 410.54c0-4.4 3.58-8 8-8h24c4.42 0 8 3.6 8 8v4c0 4.42-3.58 8-8 8h-24c-4.42 0-8-3.58-8-8z" stroke="#333" fill="#fff"/><use xlink:href="#q" transform="matrix(1,0,0,1,1595.52,362.05357142857144) translate(11.524999999999999 35.1)"/><path d="M1340 276.57c0-4.42 3.58-8 8-8h98.4c4.42 0 8 3.58 8 8v86.86c0 4.42-3.58 8-8 8H1348c-4.42 0-8-3.58-8-8z" stroke="#333" fill="#fff"/><path d="M1320 292.3c0-4.43 3.58-8 8-8h24c4.42 0 8 3.57 8 8v4c0 4.4-3.58 8-8 8h-24c-4.42 0-8-3.6-8-8zM1320 343.7c0-4.4 3.58-8 8-8h24c4.42 0 8 3.6 8 8v4c0 4.43-3.58 8-8 8h-24c-4.42 0-8-3.57-8-8z" stroke="#333" fill="#fff"/><use xlink:href="#r" transform="matrix(1,0,0,1,1346.88,278.85714285714283) translate(-6.950000000000003 45.1)"/><path d="M1405.6 1088c0-4.42 3.58-8 8-8H1732c4.42 0 8 3.58 8 8v204c0 4.42-3.58 8-8 8h-318.4c-4.42 0-8-3.58-8-8z" stroke="#333" fill="#fff"/><use xlink:href="#v" transform="matrix(1,0,0,1,1405.6,1080) translate(96.605 110.65)"/><use xlink:href="#o" transform="matrix(1,0,0,1,1405.6,1080) translate(177.505 110.65)"/><path d="M1608 1103.7c0-4.4 3.58-8 8-8h70.4c4.42 0 8 3.6 8 8v55.22c0 4.42-3.58 8-8 8H1616c-4.42 0-8-3.58-8-8z" stroke="#333" fill="#fff"/><path d="M1588 1111.52c0-4.42 3.58-8 8-8h24c4.42 0 8 3.58 8 8v4c0 4.4-3.58 8-8 8h-24c-4.42 0-8-3.6-8-8zM1588 1147.12c0-4.42 3.58-8 8-8h24c4.42 0 8 3.58 8 8v4c0 4.42-3.58 8-8 8h-24c-4.42 0-8-3.58-8-8z" stroke="#333" fill="#fff"/><use xlink:href="#p" transform="matrix(1,0,0,1,1609.28,1102.8348214285713) translate(16.025 32.1)"/><path d="M1608 1229.43c0-4.42 3.58-8 8-8h70.4c4.42 0 8 3.58 8 8v55.2c0 4.42-3.58 8-8 8H1616c-4.42 0-8-3.58-8-8z" stroke="#333" fill="#fff"/><path d="M1588 1237.23c0-4.42 3.58-8 8-8h24c4.42 0 8 3.58 8 8v4c0 4.42-3.58 8-8 8h-24c-4.42 0-8-3.58-8-8zM1588 1272.83c0-4.42 3.58-8 8-8h24c4.42 0 8 3.58 8 8v4c0 4.42-3.58 8-8 8h-24c-4.42 0-8-3.58-8-8z" stroke="#333" fill="#fff"/><use xlink:href="#q" transform="matrix(1,0,0,1,1609.28,1228.549107142857) translate(7.524999999999999 32.1)"/><path d="M1380 1150.86c0-4.42 3.58-8 8-8h85.6c4.42 0 8 3.58 8 8v78.28c0 4.42-3.58 8-8 8H1388c-4.42 0-8-3.58-8-8z" stroke="#333" fill="#fff"/><path d="M1360 1164.43c0-4.42 3.58-8 8-8h24c4.42 0 8 3.58 8 8v4c0 4.42-3.58 8-8 8h-24c-4.42 0-8-3.58-8-8zM1360 1211.57c0-4.42 3.58-8 8-8h24c4.42 0 8 3.58 8 8v4c0 4.42-3.58 8-8 8h-24c-4.42 0-8-3.58-8-8z" stroke="#333" fill="#fff"/><use xlink:href="#r" transform="matrix(1,0,0,1,1384.32,1152.2857142857142) translate(-11.450000000000003 41.6)"/><path d="M748 528c0-4.42 3.58-8 8-8h336c4.42 0 8 3.58 8 8v204c0 4.42-3.58 8-8 8H756c-4.42 0-8-3.58-8-8z" stroke="#333" fill="#fff"/><use xlink:href="#w" transform="matrix(1,0,0,1,748,520) translate(126.605 110.65)"/><use xlink:href="#o" transform="matrix(1,0,0,1,748,520) translate(165.505 110.65)"/><path d="M960 543.7c0-4.4 3.58-8 8-8h76c4.42 0 8 3.6 8 8v55.22c0 4.42-3.58 8-8 8h-76c-4.42 0-8-3.58-8-8z" stroke="#333" fill="#fff"/><path d="M940 551.52c0-4.42 3.58-8 8-8h24c4.42 0 8 3.58 8 8v4c0 4.4-3.58 8-8 8h-24c-4.42 0-8-3.6-8-8zM940 587.12c0-4.42 3.58-8 8-8h24c4.42 0 8 3.58 8 8v4c0 4.42-3.58 8-8 8h-24c-4.42 0-8-3.58-8-8z" stroke="#333" fill="#fff"/><use xlink:href="#p" transform="matrix(1,0,0,1,962.4,542.8348214285714) translate(18.025 32.1)"/><path d="M960 669.43c0-4.42 3.58-8 8-8h76c4.42 0 8 3.58 8 8v55.2c0 4.42-3.58 8-8 8h-76c-4.42 0-8-3.58-8-8z" stroke="#333" fill="#fff"/><path d="M940 677.23c0-4.42 3.58-8 8-8h24c4.42 0 8 3.58 8 8v4c0 4.42-3.58 8-8 8h-24c-4.42 0-8-3.58-8-8zM940 712.83c0-4.42 3.58-8 8-8h24c4.42 0 8 3.58 8 8v4c0 4.42-3.58 8-8 8h-24c-4.42 0-8-3.58-8-8z" stroke="#333" fill="#fff"/><use xlink:href="#q" transform="matrix(1,0,0,1,962.4,668.5491071428571) translate(9.524999999999999 32.1)"/><path d="M720 590.86c0-4.42 3.58-8 8-8h92c4.42 0 8 3.58 8 8v78.28c0 4.42-3.58 8-8 8h-92c-4.42 0-8-3.58-8-8z" stroke="#333" fill="#fff"/><path d="M700 604.43c0-4.42 3.58-8 8-8h24c4.42 0 8 3.58 8 8v4c0 4.42-3.58 8-8 8h-24c-4.42 0-8-3.58-8-8zM700 651.57c0-4.42 3.58-8 8-8h24c4.42 0 8 3.58 8 8v4c0 4.42-3.58 8-8 8h-24c-4.42 0-8-3.58-8-8z" stroke="#333" fill="#fff"/><use xlink:href="#r" transform="matrix(1,0,0,1,725.6,592.2857142857143) translate(-9.450000000000003 41.6)"/><path d="M748 848c0-4.42 3.58-8 8-8h336c4.42 0 8 3.58 8 8v204c0 4.42-3.58 8-8 8H756c-4.42 0-8-3.58-8-8z" stroke="#333" fill="#fff"/><use xlink:href="#x" transform="matrix(1,0,0,1,748,840) translate(119.055 110.65)"/><use xlink:href="#o" transform="matrix(1,0,0,1,748,840) translate(173.055 110.65)"/><path d="M960 863.7c0-4.4 3.58-8 8-8h76c4.42 0 8 3.6 8 8v55.22c0 4.42-3.58 8-8 8h-76c-4.42 0-8-3.58-8-8z" stroke="#333" fill="#fff"/><path d="M940 871.52c0-4.42 3.58-8 8-8h24c4.42 0 8 3.58 8 8v4c0 4.4-3.58 8-8 8h-24c-4.42 0-8-3.6-8-8zM940 907.12c0-4.42 3.58-8 8-8h24c4.42 0 8 3.58 8 8v4c0 4.42-3.58 8-8 8h-24c-4.42 0-8-3.58-8-8z" stroke="#333" fill="#fff"/><use xlink:href="#p" transform="matrix(1,0,0,1,962.4,862.8348214285714) translate(18.025 32.1)"/><path d="M960 989.43c0-4.42 3.58-8 8-8h76c4.42 0 8 3.58 8 8v55.2c0 4.42-3.58 8-8 8h-76c-4.42 0-8-3.58-8-8z" stroke="#333" fill="#fff"/><path d="M940 997.23c0-4.42 3.58-8 8-8h24c4.42 0 8 3.58 8 8v4c0 4.42-3.58 8-8 8h-24c-4.42 0-8-3.58-8-8zM940 1032.83c0-4.42 3.58-8 8-8h24c4.42 0 8 3.58 8 8v4c0 4.42-3.58 8-8 8h-24c-4.42 0-8-3.58-8-8z" stroke="#333" fill="#fff"/><use xlink:href="#q" transform="matrix(1,0,0,1,962.4,988.5491071428571) translate(9.524999999999999 32.1)"/><path d="M720 910.86c0-4.42 3.58-8 8-8h92c4.42 0 8 3.58 8 8v78.28c0 4.42-3.58 8-8 8h-92c-4.42 0-8-3.58-8-8z" stroke="#333" fill="#fff"/><path d="M700 924.43c0-4.42 3.58-8 8-8h24c4.42 0 8 3.58 8 8v4c0 4.42-3.58 8-8 8h-24c-4.42 0-8-3.58-8-8zM700 971.57c0-4.42 3.58-8 8-8h24c4.42 0 8 3.58 8 8v4c0 4.42-3.58 8-8 8h-24c-4.42 0-8-3.58-8-8z" stroke="#333" fill="#fff"/><use xlink:href="#r" transform="matrix(1,0,0,1,725.6,912.2857142857143) translate(-9.450000000000003 41.6)"/><path d="M364.22 900H488c6.63 0 12-5.37 12-12V736.88" stroke="#333" fill="none"/><path d="M364.23 900.5h-.5v-1h.5z" fill="#333"/><path d="M500 722.12l4.64 14.26h-9.28z" stroke="#333" fill="#333"/><path d="M420 608c0-4.42 3.58-8 8-8h144c4.42 0 8 3.58 8 8v104c0 4.42-3.58 8-8 8H428c-4.42 0-8-3.58-8-8z" stroke="#333" fill="#fff"/><use xlink:href="#y" transform="matrix(1,0,0,1,420,600) translate(27.529999999999994 63.15)"/><use xlink:href="#z" transform="matrix(1,0,0,1,420,600) translate(61.529999999999994 63.15)"/><path d="M200 701v57c0 6.63 5.37 12 12 12h59.22c6.63 0 12 5.37 12 12v41.12" stroke="#333" fill="none"/><path d="M200.5 701h-1v-.5h1z" fill="#333"/><path d="M283.22 837.88l-4.64-14.26h9.27z" stroke="#333" fill="#333"/><path d="M500 599V266.07c0-6.62 5.37-12 12-12h151.12" stroke="#333" fill="none"/><path d="M500.5 599.5h-1v-.5h1z" fill="#333"/><path d="M677.88 254.07l-14.26 4.64v-9.26z" stroke="#333" fill="#333"/><path d="M581 660h47c6.63 0 12-5.37 12-12v-29.76c0-6.62 5.37-12 12-12h31.12" stroke="#333" fill="none"/><path d="M581 660.5h-.5v-1h.5z" fill="#333"/><path d="M697.88 606.24l-14.26 4.64v-9.27z" stroke="#333" fill="#333"/><path d="M571.5 721v193.24c0 6.63 5.37 12 12 12h99.62" stroke="#333" fill="none"/><path d="M572 721h-1v-.5h1z" fill="#333"/><path d="M697.88 926.24l-14.26 4.64v-9.27z" stroke="#333" fill="#333"/><path d="M1101 950h97c6.63 0 12-5.37 12-12V306.1c0-6.63 5.37-12 12-12h81.12" stroke="#333" fill="none"/><path d="M1101 950.5h-.5v-1h.5z" fill="#333"/><path d="M1317.88 294.1l-14.26 4.63v-9.27z" stroke="#333" fill="#333"/><path d="M1555.2 441v182.12" stroke="#333" fill="none"/><path d="M1555.7 441h-1v-.5h1z" fill="#333"/><path d="M1555.2 637.88l-4.64-14.26h9.28z" stroke="#333" fill="#333"/><path d="M1564 861v202.12" stroke="#333" fill="none"/><path d="M1564.5 861h-1v-.5h1z" fill="#333"/><path d="M1564 1077.88l-4.64-14.26h9.28z" stroke="#333" fill="#333"/><path d="M924 741v82.12" stroke="#333" fill="none"/><path d="M924.5 741h-1v-.5h1z" fill="#333"/><path d="M924 837.88l-4.64-14.26h9.28z" stroke="#333" fill="#333"/><path d="M892.8 401v102.12" stroke="#333" fill="none"/><path d="M893.3 401h-1v-.5h1z" fill="#333"/><path d="M892.8 517.88l-4.64-14.26h9.28z" stroke="#333" fill="#333"/><path d="M419 660h-59c-5.52 0-10-4.48-10-10s-4.48-10-10-10h-43.12" stroke="#333" fill="none"/><path d="M419.5 660.5h-.5v-1h.5z" fill="#333"/><path d="M282.12 640l14.26-4.64v9.28z" stroke="#333" fill="#333"/><path d="M1359 1213.77H391.5c-6.63 0-12-5.38-12-12V905c-2.76 0-5-2.24-5-5s2.24-5 5-5V695c0-6.63 5.37-12 12-12h11.62" stroke="#333" fill="none"/><path d="M1359.5 1214.27h-.5v-1h.5z" fill="#333"/><path d="M417.88 683l-14.26 4.64v-9.28z" stroke="#333" fill="#333"/><defs><path fill="#b2b2b2" d="M24-248c120-7 223 5 221 122C244-46 201 0 124 0H24v-248zM76-40c74 7 117-18 117-86 0-67-45-88-117-82v168" id="A"/><path fill="#b2b2b2" d="M24 0v-248h52V0H24" id="B"/><path fill="#b2b2b2" d="M169-182c-1-43-94-46-97-3 18 66 151 10 154 114 3 95-165 93-204 36-6-8-10-19-12-30l50-8c3 46 112 56 116 5-17-69-150-10-154-114-4-87 153-88 188-35 5 8 8 18 10 28" id="C"/><path fill="#b2b2b2" d="M140-251c80 0 125 45 125 126 0 70-33 111-92 124 6 28 34 38 68 31l-1 36C177 83 129 55 120 2 51-6 15-50 15-125c0-81 44-126 125-126zm-1 214c52 0 73-35 73-88 0-50-21-86-72-86-52 0-73 35-73 86s22 88 72 88" id="D"/><path fill="#b2b2b2" d="M140-251c80 0 125 45 125 126S219 4 139 4C58 4 15-44 15-125s44-126 125-126zm-1 214c52 0 73-35 73-88 0-50-21-86-72-86-52 0-73 35-73 86s22 88 72 88" id="E"/><g id="a"><use transform="matrix(0.0728395061728395,0,0,0.0728395061728395,0,0)" xlink:href="#A"/><use transform="matrix(0.0728395061728395,0,0,0.0728395061728395,18.86543209876543,0)" xlink:href="#B"/><use transform="matrix(0.0728395061728395,0,0,0.0728395061728395,26.14938271604938,0)" xlink:href="#C"/><use transform="matrix(0.0728395061728395,0,0,0.0728395061728395,43.63086419753086,0)" xlink:href="#D"/><use transform="matrix(0.0728395061728395,0,0,0.0728395061728395,64.02592592592592,0)" xlink:href="#E"/></g><path fill="#b2b2b2" d="M24 0v-248h195v40H76v63h132v40H76v65h150V0H24" id="F"/><path fill="#b2b2b2" d="M14-72v-43h91v43H14" id="G"/><path fill="#b2b2b2" d="M67-125c0 53 21 87 73 88 37 1 54-22 65-47l45 17C233-25 199 4 140 4 58 4 20-42 15-125 8-235 124-281 211-232c18 10 29 29 36 50l-46 12c-8-25-30-41-62-41-52 0-71 34-72 86" id="H"/><path fill="#b2b2b2" d="M110-194c64 0 96 36 96 99 0 64-35 99-97 99-61 0-95-36-95-99 0-62 34-99 96-99zm-1 164c35 0 45-28 45-65 0-40-10-65-43-65-34 0-45 26-45 65 0 36 10 65 43 65" id="I"/><path fill="#b2b2b2" d="M220-157c-53 9-28 100-34 157h-49v-107c1-27-5-49-29-50C55-147 81-57 75 0H25l-1-190h47c2 12-1 28 3 38 10-53 101-56 108 0 13-22 24-43 59-42 82 1 51 116 57 194h-49v-107c-1-25-5-48-29-50" id="J"/><path fill="#b2b2b2" d="M185-48c-13 30-37 53-82 52C43 2 14-33 14-96s30-98 90-98c62 0 83 45 84 108H66c0 31 8 55 39 56 18 0 30-7 34-22zm-45-69c5-46-57-63-70-21-2 6-4 13-4 21h74" id="K"/><path fill="#b2b2b2" d="M135-150c-39-12-60 13-60 57V0H25l-1-190h47c2 13-1 29 3 40 6-28 27-53 61-41v41" id="L"/><path fill="#b2b2b2" d="M190-63c-7 42-38 67-86 67-59 0-84-38-90-98-12-110 154-137 174-36l-49 2c-2-19-15-32-35-32-30 0-35 28-38 64-6 74 65 87 74 30" id="M"/><g id="b"><use transform="matrix(0.0728395061728395,0,0,0.0728395061728395,0,0)" xlink:href="#F"/><use transform="matrix(0.0728395061728395,0,0,0.0728395061728395,17.48148148148148,0)" xlink:href="#G"/><use transform="matrix(0.0728395061728395,0,0,0.0728395061728395,26.14938271604938,0)" xlink:href="#H"/><use transform="matrix(0.0728395061728395,0,0,0.0728395061728395,45.01481481481481,0)" xlink:href="#I"/><use transform="matrix(0.0728395061728395,0,0,0.0728395061728395,60.966666666666654,0)" xlink:href="#J"/><use transform="matrix(0.0728395061728395,0,0,0.0728395061728395,84.2753086419753,0)" xlink:href="#J"/><use transform="matrix(0.0728395061728395,0,0,0.0728395061728395,107.58395061728395,0)" xlink:href="#K"/><use transform="matrix(0.0728395061728395,0,0,0.0728395061728395,122.15185185185184,0)" xlink:href="#L"/><use transform="matrix(0.0728395061728395,0,0,0.0728395061728395,132.34938271604938,0)" xlink:href="#M"/><use transform="matrix(0.0728395061728395,0,0,0.0728395061728395,146.91728395061727,0)" xlink:href="#K"/></g><path fill="#b2b2b2" d="M186 0v-106H76V0H24v-248h52v99h110v-99h50V0h-50" id="N"/><path fill="#b2b2b2" d="M25-224v-37h50v37H25zM25 0v-190h50V0H25" id="O"/><path fill="#b2b2b2" d="M195-6C206 82 75 100 31 46c-4-6-6-13-8-21l49-6c3 16 16 24 34 25 40 0 42-37 40-79-11 22-30 35-61 35-53 0-70-43-70-97 0-56 18-96 73-97 30 0 46 14 59 34l2-30h47zm-90-29c32 0 41-27 41-63 0-35-9-62-40-62-32 0-39 29-40 63 0 36 9 62 39 62" id="P"/><path fill="#b2b2b2" d="M114-157C55-157 80-60 75 0H25v-261h50l-1 109c12-26 28-41 61-42 86-1 58 113 63 194h-50c-7-57 23-157-34-157" id="Q"/><path fill="#b2b2b2" d="M25 0v-261h50V0H25" id="R"/><path fill="#b2b2b2" d="M128 0H69L1-190h53L99-40l48-150h52" id="S"/><g id="c"><use transform="matrix(0.0728395061728395,0,0,0.0728395061728395,0,0)" xlink:href="#N"/><use transform="matrix(0.0728395061728395,0,0,0.0728395061728395,18.86543209876543,0)" xlink:href="#O"/><use transform="matrix(0.0728395061728395,0,0,0.0728395061728395,26.14938271604938,0)" xlink:href="#P"/><use transform="matrix(0.0728395061728395,0,0,0.0728395061728395,42.10123456790124,0)" xlink:href="#Q"/><use transform="matrix(0.0728395061728395,0,0,0.0728395061728395,58.05308641975308,0)" xlink:href="#G"/><use transform="matrix(0.0728395061728395,0,0,0.0728395061728395,66.72098765432098,0)" xlink:href="#R"/><use transform="matrix(0.0728395061728395,0,0,0.0728395061728395,74.00493827160493,0)" xlink:href="#K"/><use transform="matrix(0.0728395061728395,0,0,0.0728395061728395,88.57283950617283,0)" xlink:href="#S"/><use transform="matrix(0.0728395061728395,0,0,0.0728395061728395,103.14074074074072,0)" xlink:href="#K"/><use transform="matrix(0.0728395061728395,0,0,0.0728395061728395,117.70864197530862,0)" xlink:href="#R"/></g><path fill="#b2b2b2" d="M123 10C108 53 80 86 19 72V37c35 8 53-11 59-39L3-190h52l48 148c12-52 28-100 44-148h51" id="T"/><path fill="#b2b2b2" d="M137-138c1-29-70-34-71-4 15 46 118 7 119 86 1 83-164 76-172 9l43-7c4 19 20 25 44 25 33 8 57-30 24-41C81-84 22-81 20-136c-2-80 154-74 161-7" id="U"/><path fill="#b2b2b2" d="M115-3C79 11 28 4 28-45v-112H4v-33h27l15-45h31v45h36v33H77v99c-1 23 16 31 38 25v30" id="V"/><g id="d"><use transform="matrix(0.0728395061728395,0,0,0.0728395061728395,0,0)" xlink:href="#C"/><use transform="matrix(0.0728395061728395,0,0,0.0728395061728395,17.48148148148148,0)" xlink:href="#T"/><use transform="matrix(0.0728395061728395,0,0,0.0728395061728395,32.04938271604938,0)" xlink:href="#U"/><use transform="matrix(0.0728395061728395,0,0,0.0728395061728395,46.61728395061728,0)" xlink:href="#V"/><use transform="matrix(0.0728395061728395,0,0,0.0728395061728395,55.28518518518518,0)" xlink:href="#K"/><use transform="matrix(0.0728395061728395,0,0,0.0728395061728395,69.85308641975308,0)" xlink:href="#J"/><use transform="matrix(0.0728395061728395,0,0,0.0728395061728395,93.16172839506173,0)" xlink:href="#U"/></g><path fill="#b2b2b2" d="M133-34C117-15 103 5 69 4 32 3 11-16 11-54c-1-60 55-63 116-61 1-26-3-47-28-47-18 1-26 9-28 27l-52-2c7-38 36-58 82-57s74 22 75 68l1 82c-1 14 12 18 25 15v27c-30 8-71 5-69-32zm-48 3c29 0 43-24 42-57-32 0-66-3-65 30 0 17 8 27 23 27" id="W"/><g id="e"><use transform="matrix(0.0728395061728395,0,0,0.0728395061728395,0,0)" xlink:href="#A"/><use transform="matrix(0.0728395061728395,0,0,0.0728395061728395,18.86543209876543,0)" xlink:href="#O"/><use transform="matrix(0.0728395061728395,0,0,0.0728395061728395,26.14938271604938,0)" xlink:href="#W"/><use transform="matrix(0.0728395061728395,0,0,0.0728395061728395,40.717283950617286,0)" xlink:href="#P"/><use transform="matrix(0.0728395061728395,0,0,0.0728395061728395,56.66913580246913,0)" xlink:href="#L"/><use transform="matrix(0.0728395061728395,0,0,0.0728395061728395,66.86666666666666,0)" xlink:href="#W"/><use transform="matrix(0.0728395061728395,0,0,0.0728395061728395,81.43456790123457,0)" xlink:href="#J"/></g><path fill="#b2b2b2" d="M190 0L58-211 59 0H30v-248h39L202-35l-2-213h31V0h-41" id="X"/><path fill="#b2b2b2" d="M24-231v-30h32v30H24zM24 0v-190h32V0H24" id="Y"/><path fill="#b2b2b2" d="M210-169c-67 3-38 105-44 169h-31v-121c0-29-5-50-35-48C34-165 62-65 56 0H25l-1-190h30c1 10-1 24 2 32 10-44 99-50 107 0 11-21 27-35 58-36 85-2 47 119 55 194h-31v-121c0-29-5-49-35-48" id="Z"/><path fill="#b2b2b2" d="M135-143c-3-34-86-38-87 0 15 53 115 12 119 90S17 21 10-45l28-5c4 36 97 45 98 0-10-56-113-15-118-90-4-57 82-63 122-42 12 7 21 19 24 35" id="aa"/><path fill="#b2b2b2" d="M106-169C34-169 62-67 57 0H25v-261h32l-1 103c12-21 28-36 61-36 89 0 53 116 60 194h-32v-121c2-32-8-49-39-48" id="ab"/><g id="f"><use transform="matrix(0.04248971193415638,0,0,0.04248971193415638,0,0)" xlink:href="#X"/><use transform="matrix(0.04248971193415638,0,0,0.04248971193415638,11.004835390946502,0)" xlink:href="#Y"/><use transform="matrix(0.04248971193415638,0,0,0.04248971193415638,14.361522633744855,0)" xlink:href="#Z"/><use transform="matrix(0.04248971193415638,0,0,0.04248971193415638,27.065946502057614,0)" xlink:href="#Y"/><use transform="matrix(0.04248971193415638,0,0,0.04248971193415638,30.422633744855972,0)" xlink:href="#aa"/><use transform="matrix(0.04248971193415638,0,0,0.04248971193415638,38.07078189300412,0)" xlink:href="#ab"/></g><path fill="#b2b2b2" d="M30-248c87 1 191-15 191 75 0 78-77 80-158 76V0H30v-248zm33 125c57 0 124 11 124-50 0-59-68-47-124-48v98" id="ac"/><path fill="#b2b2b2" d="M141-36C126-15 110 5 73 4 37 3 15-17 15-53c-1-64 63-63 125-63 3-35-9-54-41-54-24 1-41 7-42 31l-33-3c5-37 33-52 76-52 45 0 72 20 72 64v82c-1 20 7 32 28 27v20c-31 9-61-2-59-35zM48-53c0 20 12 33 32 33 41-3 63-29 60-74-43 2-92-5-92 41" id="ad"/><path fill="#b2b2b2" d="M114-163C36-179 61-72 57 0H25l-1-190h30c1 12-1 29 2 39 6-27 23-49 58-41v29" id="ae"/><g id="g"><use transform="matrix(0.04248971193415638,0,0,0.04248971193415638,0,0)" xlink:href="#ac"/><use transform="matrix(0.04248971193415638,0,0,0.04248971193415638,10.19753086419753,0)" xlink:href="#ad"/><use transform="matrix(0.04248971193415638,0,0,0.04248971193415638,18.695473251028805,0)" xlink:href="#ae"/><use transform="matrix(0.04248971193415638,0,0,0.04248971193415638,23.751748971193415,0)" xlink:href="#Z"/><use transform="matrix(0.04248971193415638,0,0,0.04248971193415638,36.45617283950617,0)" xlink:href="#ad"/><use transform="matrix(0.04248971193415638,0,0,0.04248971193415638,44.95411522633745,0)" xlink:href="#ae"/></g><path fill="#b2b2b2" d="M32 76v-337h29V76H32" id="af"/><use transform="matrix(0.04248971193415638,0,0,0.04248971193415638,0,0)" xlink:href="#af" id="h"/><path fill="#b2b2b2" d="M63-220v92h138v28H63V0H30v-248h175v28H63" id="ag"/><path fill="#b2b2b2" d="M100-194c63 0 86 42 84 106H49c0 40 14 67 53 68 26 1 43-12 49-29l28 8c-11 28-37 45-77 45C44 4 14-33 15-96c1-61 26-98 85-98zm52 81c6-60-76-77-97-28-3 7-6 17-6 28h103" id="ah"/><path fill="#b2b2b2" d="M115-194c53 0 69 39 70 98 0 66-23 100-70 100C84 3 66-7 56-30L54 0H23l1-261h32v101c10-23 28-34 59-34zm-8 174c40 0 45-34 45-75 0-40-5-75-45-74-42 0-51 32-51 76 0 43 10 73 51 73" id="ai"/><path fill="#b2b2b2" d="M84 4C-5 8 30-112 23-190h32v120c0 31 7 50 39 49 72-2 45-101 50-169h31l1 190h-30c-1-10 1-25-2-33-11 22-28 36-60 37" id="aj"/><path fill="#b2b2b2" d="M179-190L93 31C79 59 56 82 12 73V49c39 6 53-20 64-50L1-190h34L92-34l54-156h33" id="ak"/><g id="i"><use transform="matrix(0.04248971193415638,0,0,0.04248971193415638,0,0)" xlink:href="#ag"/><use transform="matrix(0.04248971193415638,0,0,0.04248971193415638,9.305246913580246,0)" xlink:href="#ah"/><use transform="matrix(0.04248971193415638,0,0,0.04248971193415638,17.80318930041152,0)" xlink:href="#ai"/><use transform="matrix(0.04248971193415638,0,0,0.04248971193415638,26.301131687242794,0)" xlink:href="#ae"/><use transform="matrix(0.04248971193415638,0,0,0.04248971193415638,31.357407407407408,0)" xlink:href="#aj"/><use transform="matrix(0.04248971193415638,0,0,0.04248971193415638,39.85534979423868,0)" xlink:href="#ad"/><use transform="matrix(0.04248971193415638,0,0,0.04248971193415638,48.35329218106995,0)" xlink:href="#ae"/><use transform="matrix(0.04248971193415638,0,0,0.04248971193415638,53.40956790123455,0)" xlink:href="#ak"/></g><path fill="#b2b2b2" d="M27 0v-27h64v-190l-56 39v-29l58-41h29v221h61V0H27" id="al"/><path fill="#b2b2b2" d="M134-131c28 9 52 24 51 62-1 50-34 73-85 73S17-19 16-69c0-36 21-54 49-61-75-25-45-126 34-121 46 3 78 18 79 63 0 33-17 51-44 57zm-34-11c31 1 46-15 46-44 0-28-17-43-47-42-29 0-46 13-45 42 1 28 16 44 46 44zm1 122c35 0 51-18 51-52 0-30-18-46-53-46-33 0-51 17-51 47 0 34 19 51 53 51" id="am"/><path fill="#b2b2b2" d="M68-38c1 34 0 65-14 84H32c9-13 17-26 17-46H33v-38h35" id="an"/><g id="j"><use transform="matrix(0.04248971193415638,0,0,0.04248971193415638,0,0)" xlink:href="#al"/><use transform="matrix(0.04248971193415638,0,0,0.04248971193415638,8.497942386831275,0)" xlink:href="#am"/><use transform="matrix(0.04248971193415638,0,0,0.04248971193415638,16.99588477366255,0)" xlink:href="#an"/></g><path fill="#b2b2b2" d="M101-251c82-7 93 87 43 132L82-64C71-53 59-42 53-27h129V0H18c2-99 128-94 128-182 0-28-16-43-45-43s-46 15-49 41l-32-3c6-41 34-60 81-64" id="ao"/><path fill="#b2b2b2" d="M101-251c68 0 85 55 85 127S166 4 100 4C33 4 14-52 14-124c0-73 17-127 87-127zm-1 229c47 0 54-49 54-102s-4-102-53-102c-51 0-55 48-55 102 0 53 5 102 54 102" id="ap"/><g id="k"><use transform="matrix(0.04248971193415638,0,0,0.04248971193415638,0,0)" xlink:href="#ao"/><use transform="matrix(0.04248971193415638,0,0,0.04248971193415638,8.497942386831275,0)" xlink:href="#ap"/><use transform="matrix(0.04248971193415638,0,0,0.04248971193415638,16.99588477366255,0)" xlink:href="#ao"/><use transform="matrix(0.04248971193415638,0,0,0.04248971193415638,25.493827160493822,0)" xlink:href="#ap"/></g><path fill="#333" d="M266 0h-40l-56-210L115 0H75L2-248h35L96-30l15-64 43-154h32l59 218 59-218h35" id="aq"/><path fill="#333" d="M100-194c63 0 86 42 84 106H49c0 40 14 67 53 68 26 1 43-12 49-29l28 8c-11 28-37 45-77 45C44 4 14-33 15-96c1-61 26-98 85-98zm52 81c6-60-76-77-97-28-3 7-6 17-6 28h103" id="ar"/><path fill="#333" d="M115-194c53 0 69 39 70 98 0 66-23 100-70 100C84 3 66-7 56-30L54 0H23l1-261h32v101c10-23 28-34 59-34zm-8 174c40 0 45-34 45-75 0-40-5-75-45-74-42 0-51 32-51 76 0 43 10 73 51 73" id="as"/><g id="l"><use transform="matrix(0.05,0,0,0.05,0,0)" xlink:href="#aq"/><use transform="matrix(0.05,0,0,0.05,16.599999999999998,0)" xlink:href="#ar"/><use transform="matrix(0.05,0,0,0.05,26.599999999999994,0)" xlink:href="#as"/></g><path fill="#333" d="M205 0l-28-72H64L36 0H1l101-248h38L239 0h-34zm-38-99l-47-123c-12 45-31 82-46 123h93" id="at"/><path fill="#333" d="M115-194c55 1 70 41 70 98S169 2 115 4C84 4 66-9 55-30l1 105H24l-1-265h31l2 30c10-21 28-34 59-34zm-8 174c40 0 45-34 45-75s-6-73-45-74c-42 0-51 32-51 76 0 43 10 73 51 73" id="au"/><g id="m"><use transform="matrix(0.05,0,0,0.05,0,0)" xlink:href="#at"/><use transform="matrix(0.05,0,0,0.05,12,0)" xlink:href="#au"/><use transform="matrix(0.05,0,0,0.05,22,0)" xlink:href="#au"/></g><path fill="#333" d="M30-248c87 1 191-15 191 75 0 78-77 80-158 76V0H30v-248zm33 125c57 0 124 11 124-50 0-59-68-47-124-48v98" id="av"/><path fill="#333" d="M114-163C36-179 61-72 57 0H25l-1-190h30c1 12-1 29 2 39 6-27 23-49 58-41v29" id="aw"/><path fill="#333" d="M100-194c62-1 85 37 85 99 1 63-27 99-86 99S16-35 15-95c0-66 28-99 85-99zM99-20c44 1 53-31 53-75 0-43-8-75-51-75s-53 32-53 75 10 74 51 75" id="ax"/><path fill="#333" d="M85-194c31 0 48 13 60 33l-1-100h32l1 261h-30c-2-10 0-23-3-31C134-8 116 4 85 4 32 4 16-35 15-94c0-66 23-100 70-100zm9 24c-40 0-46 34-46 75 0 40 6 74 45 74 42 0 51-32 51-76 0-42-9-74-50-73" id="ay"/><path fill="#333" d="M84 4C-5 8 30-112 23-190h32v120c0 31 7 50 39 49 72-2 45-101 50-169h31l1 190h-30c-1-10 1-25-2-33-11 22-28 36-60 37" id="az"/><path fill="#333" d="M96-169c-40 0-48 33-48 73s9 75 48 75c24 0 41-14 43-38l32 2c-6 37-31 61-74 61-59 0-76-41-82-99-10-93 101-131 147-64 4 7 5 14 7 22l-32 3c-4-21-16-35-41-35" id="aA"/><path fill="#333" d="M59-47c-2 24 18 29 38 22v24C64 9 27 4 27-40v-127H5v-23h24l9-43h21v43h35v23H59v120" id="aB"/><g id="n"><use transform="matrix(0.05,0,0,0.05,0,0)" xlink:href="#av"/><use transform="matrix(0.05,0,0,0.05,12,0)" xlink:href="#aw"/><use transform="matrix(0.05,0,0,0.05,17.95,0)" xlink:href="#ax"/><use transform="matrix(0.05,0,0,0.05,27.950000000000003,0)" xlink:href="#ay"/><use transform="matrix(0.05,0,0,0.05,37.95,0)" xlink:href="#az"/><use transform="matrix(0.05,0,0,0.05,47.95,0)" xlink:href="#aA"/><use transform="matrix(0.05,0,0,0.05,56.95,0)" xlink:href="#aB"/></g><path fill="#333" d="M185-189c-5-48-123-54-124 2 14 75 158 14 163 119 3 78-121 87-175 55-17-10-28-26-33-46l33-7c5 56 141 63 141-1 0-78-155-14-162-118-5-82 145-84 179-34 5 7 8 16 11 25" id="aC"/><path fill="#333" d="M108 0H70L1-190h34L89-25l56-165h34" id="aD"/><path fill="#333" d="M24-231v-30h32v30H24zM24 0v-190h32V0H24" id="aE"/><g id="o"><use transform="matrix(0.05,0,0,0.05,0,0)" xlink:href="#aC"/><use transform="matrix(0.05,0,0,0.05,12,0)" xlink:href="#ar"/><use transform="matrix(0.05,0,0,0.05,22,0)" xlink:href="#aw"/><use transform="matrix(0.05,0,0,0.05,27.950000000000003,0)" xlink:href="#aD"/><use transform="matrix(0.05,0,0,0.05,36.95,0)" xlink:href="#aE"/><use transform="matrix(0.05,0,0,0.05,40.900000000000006,0)" xlink:href="#aA"/><use transform="matrix(0.05,0,0,0.05,49.900000000000006,0)" xlink:href="#ar"/></g><path fill="#333" d="M117-194c89-4 53 116 60 194h-32v-121c0-31-8-49-39-48C34-167 62-67 57 0H25l-1-190h30c1 10-1 24 2 32 11-22 29-35 61-36" id="aF"/><path fill="#333" d="M177-190C167-65 218 103 67 71c-23-6-38-20-44-43l32-5c15 47 100 32 89-28v-30C133-14 115 1 83 1 29 1 15-40 15-95c0-56 16-97 71-98 29-1 48 16 59 35 1-10 0-23 2-32h30zM94-22c36 0 50-32 50-73 0-42-14-75-50-75-39 0-46 34-46 75s6 73 46 73" id="aG"/><path fill="#333" d="M141 0L90-78 38 0H4l68-98-65-92h35l48 74 47-74h35l-64 92 68 98h-35" id="aH"/><g id="p"><use transform="matrix(0.05,0,0,0.05,0,0)" xlink:href="#aF"/><use transform="matrix(0.05,0,0,0.05,10,0)" xlink:href="#aG"/><use transform="matrix(0.05,0,0,0.05,20,0)" xlink:href="#aE"/><use transform="matrix(0.05,0,0,0.05,23.95,0)" xlink:href="#aF"/><use transform="matrix(0.05,0,0,0.05,33.95,0)" xlink:href="#aH"/></g><path fill="#333" d="M240 0l2-218c-23 76-54 145-80 218h-23L58-218 59 0H30v-248h44l77 211c21-75 51-140 76-211h43V0h-30" id="aI"/><path fill="#333" d="M179-190L93 31C79 59 56 82 12 73V49c39 6 53-20 64-50L1-190h34L92-34l54-156h33" id="aJ"/><path fill="#333" d="M140-251c81 0 123 46 123 126C263-53 228-8 163 1c7 30 30 48 69 40v23c-55 16-95-15-103-61C56-3 17-48 17-125c0-80 42-126 123-126zm0 227c63 0 89-41 89-101s-29-99-89-99c-61 0-89 39-89 99S79-25 140-24" id="aK"/><path fill="#333" d="M30 0v-248h33v221h125V0H30" id="aL"/><g id="q"><use transform="matrix(0.05,0,0,0.05,0,0)" xlink:href="#aI"/><use transform="matrix(0.05,0,0,0.05,14.950000000000001,0)" xlink:href="#aJ"/><use transform="matrix(0.05,0,0,0.05,23.950000000000003,0)" xlink:href="#aC"/><use transform="matrix(0.05,0,0,0.05,35.95,0)" xlink:href="#aK"/><use transform="matrix(0.05,0,0,0.05,49.95,0)" xlink:href="#aL"/></g><path fill="#333" d="M141-36C126-15 110 5 73 4 37 3 15-17 15-53c-1-64 63-63 125-63 3-35-9-54-41-54-24 1-41 7-42 31l-33-3c5-37 33-52 76-52 45 0 72 20 72 64v82c-1 20 7 32 28 27v20c-31 9-61-2-59-35zM48-53c0 20 12 33 32 33 41-3 63-29 60-74-43 2-92-5-92 41" id="aM"/><path fill="#333" d="M24 0v-261h32V0H24" id="aN"/><g id="r"><use transform="matrix(0.05,0,0,0.05,0,0)" xlink:href="#aL"/><use transform="matrix(0.05,0,0,0.05,10,0)" xlink:href="#ax"/><use transform="matrix(0.05,0,0,0.05,20,0)" xlink:href="#aM"/><use transform="matrix(0.05,0,0,0.05,30,0)" xlink:href="#ay"/><use transform="matrix(0.05,0,0,0.05,40,0)" xlink:href="#as"/><use transform="matrix(0.05,0,0,0.05,50,0)" xlink:href="#aM"/><use transform="matrix(0.05,0,0,0.05,60,0)" xlink:href="#aN"/><use transform="matrix(0.05,0,0,0.05,63.95,0)" xlink:href="#aM"/><use transform="matrix(0.05,0,0,0.05,73.95,0)" xlink:href="#aF"/><use transform="matrix(0.05,0,0,0.05,83.95,0)" xlink:href="#aA"/><use transform="matrix(0.05,0,0,0.05,92.95,0)" xlink:href="#ar"/><use transform="matrix(0.05,0,0,0.05,102.95,0)" xlink:href="#aw"/></g><path fill="#333" d="M140-251c81 0 123 46 123 126C263-46 219 4 140 4 59 4 17-45 17-125s42-126 123-126zm0 227c63 0 89-41 89-101s-29-99-89-99c-61 0-89 39-89 99S79-25 140-24" id="aO"/><g id="s"><use transform="matrix(0.05,0,0,0.05,0,0)" xlink:href="#aO"/><use transform="matrix(0.05,0,0,0.05,14,0)" xlink:href="#aw"/><use transform="matrix(0.05,0,0,0.05,19.95,0)" xlink:href="#ay"/><use transform="matrix(0.05,0,0,0.05,29.950000000000003,0)" xlink:href="#ar"/><use transform="matrix(0.05,0,0,0.05,39.95,0)" xlink:href="#aw"/></g><path fill="#333" d="M106-169C34-169 62-67 57 0H25v-261h32l-1 103c12-21 28-36 61-36 89 0 53 116 60 194h-32v-121c2-32-8-49-39-48" id="aP"/><g id="t"><use transform="matrix(0.05,0,0,0.05,0,0)" xlink:href="#at"/><use transform="matrix(0.05,0,0,0.05,12,0)" xlink:href="#az"/><use transform="matrix(0.05,0,0,0.05,22,0)" xlink:href="#aB"/><use transform="matrix(0.05,0,0,0.05,27,0)" xlink:href="#aP"/></g><path fill="#333" d="M127-220V0H93v-220H8v-28h204v28h-85" id="aQ"/><path fill="#333" d="M135-143c-3-34-86-38-87 0 15 53 115 12 119 90S17 21 10-45l28-5c4 36 97 45 98 0-10-56-113-15-118-90-4-57 82-63 122-42 12 7 21 19 24 35" id="aR"/><g id="u"><use transform="matrix(0.05,0,0,0.05,0,0)" xlink:href="#aQ"/><use transform="matrix(0.05,0,0,0.05,10.3,0)" xlink:href="#aw"/><use transform="matrix(0.05,0,0,0.05,16.25,0)" xlink:href="#aM"/><use transform="matrix(0.05,0,0,0.05,26.25,0)" xlink:href="#aF"/><use transform="matrix(0.05,0,0,0.05,36.25,0)" xlink:href="#aR"/><use transform="matrix(0.05,0,0,0.05,45.25,0)" xlink:href="#aM"/><use transform="matrix(0.05,0,0,0.05,55.25,0)" xlink:href="#aA"/><use transform="matrix(0.05,0,0,0.05,64.25,0)" xlink:href="#aB"/><use transform="matrix(0.05,0,0,0.05,69.25,0)" xlink:href="#aE"/><use transform="matrix(0.05,0,0,0.05,73.2,0)" xlink:href="#ax"/><use transform="matrix(0.05,0,0,0.05,83.2,0)" xlink:href="#aF"/></g><path fill="#333" d="M210-169c-67 3-38 105-44 169h-31v-121c0-29-5-50-35-48C34-165 62-65 56 0H25l-1-190h30c1 10-1 24 2 32 10-44 99-50 107 0 11-21 27-35 58-36 85-2 47 119 55 194h-31v-121c0-29-5-49-35-48" id="aS"/><g id="v"><use transform="matrix(0.05,0,0,0.05,0,0)" xlink:href="#aC"/><use transform="matrix(0.05,0,0,0.05,12,0)" xlink:href="#aP"/><use transform="matrix(0.05,0,0,0.05,22,0)" xlink:href="#aE"/><use transform="matrix(0.05,0,0,0.05,25.950000000000003,0)" xlink:href="#au"/><use transform="matrix(0.05,0,0,0.05,35.95,0)" xlink:href="#aS"/><use transform="matrix(0.05,0,0,0.05,50.900000000000006,0)" xlink:href="#ar"/><use transform="matrix(0.05,0,0,0.05,60.900000000000006,0)" xlink:href="#aF"/><use transform="matrix(0.05,0,0,0.05,70.9,0)" xlink:href="#aB"/></g><path fill="#333" d="M212-179c-10-28-35-45-73-45-59 0-87 40-87 99 0 60 29 101 89 101 43 0 62-24 78-52l27 14C228-24 195 4 139 4 59 4 22-46 18-125c-6-104 99-153 187-111 19 9 31 26 39 46" id="aT"/><g id="w"><use transform="matrix(0.05,0,0,0.05,0,0)" xlink:href="#aT"/><use transform="matrix(0.05,0,0,0.05,12.950000000000001,0)" xlink:href="#aM"/><use transform="matrix(0.05,0,0,0.05,22.950000000000003,0)" xlink:href="#aw"/><use transform="matrix(0.05,0,0,0.05,28.900000000000002,0)" xlink:href="#aB"/></g><g id="x"><use transform="matrix(0.05,0,0,0.05,0,0)" xlink:href="#aK"/><use transform="matrix(0.05,0,0,0.05,14,0)" xlink:href="#az"/><use transform="matrix(0.05,0,0,0.05,24,0)" xlink:href="#ax"/><use transform="matrix(0.05,0,0,0.05,34,0)" xlink:href="#aB"/><use transform="matrix(0.05,0,0,0.05,39,0)" xlink:href="#ar"/></g><path fill="#333" d="M33 0v-248h34V0H33" id="aU"/><g id="y"><use transform="matrix(0.05,0,0,0.05,0,0)" xlink:href="#at"/><use transform="matrix(0.05,0,0,0.05,12,0)" xlink:href="#av"/><use transform="matrix(0.05,0,0,0.05,24,0)" xlink:href="#aU"/></g><path fill="#333" d="M143 4C61 4 22-44 18-125c-5-107 100-154 193-111 17 8 29 25 37 43l-32 9c-13-25-37-40-76-40-61 0-88 39-88 99 0 61 29 100 91 101 35 0 62-11 79-27v-45h-74v-28h105v86C228-13 192 4 143 4" id="aV"/><path fill="#333" d="M206 0h-36l-40-164L89 0H53L-1-190h32L70-26l43-164h34l41 164 42-164h31" id="aW"/><g id="z"><use transform="matrix(0.05,0,0,0.05,0,0)" xlink:href="#aV"/><use transform="matrix(0.05,0,0,0.05,14,0)" xlink:href="#aM"/><use transform="matrix(0.05,0,0,0.05,24,0)" xlink:href="#aB"/><use transform="matrix(0.05,0,0,0.05,29,0)" xlink:href="#ar"/><use transform="matrix(0.05,0,0,0.05,39,0)" xlink:href="#aW"/><use transform="matrix(0.05,0,0,0.05,51.95,0)" xlink:href="#aM"/><use transform="matrix(0.05,0,0,0.05,61.95,0)" xlink:href="#aJ"/></g></defs></g></svg>