<svg id="mermaid-1582100740093" width="100%" xmlns="http://www.w3.org/2000/svg" height="100%" viewBox="0 0 1008 1396"><style>#mermaid-1582100740093 .label{font-family:trebuchet ms,verdana,arial;color:#333}#mermaid-1582100740093 .node circle,#mermaid-1582100740093 .node ellipse,#mermaid-1582100740093 .node polygon,#mermaid-1582100740093 .node rect{fill:#ececff;stroke:#9370db;stroke-width:1px}#mermaid-1582100740093 .node.clickable{cursor:pointer}#mermaid-1582100740093 .arrowheadPath{fill:#333}#mermaid-1582100740093 .edgePath .path{stroke:#333;stroke-width:1.5px}#mermaid-1582100740093 .edgeLabel{background-color:#e8e8e8}#mermaid-1582100740093 .cluster rect{fill:#ffffde!important;stroke:#aa3!important;stroke-width:1px!important}#mermaid-1582100740093 .cluster text{fill:#333}#mermaid-1582100740093 div.mermaidTooltip{position:absolute;text-align:center;max-width:200px;padding:2px;font-family:trebuchet ms,verdana,arial;font-size:12px;background:#ffffde;border:1px solid #aa3;border-radius:2px;pointer-events:none;z-index:100}#mermaid-1582100740093 .actor{stroke:#ccf;fill:#ececff}#mermaid-1582100740093 text.actor{fill:#000;stroke:none}#mermaid-1582100740093 .actor-line{stroke:grey}#mermaid-1582100740093 .messageLine0{marker-end:"url(#arrowhead)"}#mermaid-1582100740093 .messageLine0,#mermaid-1582100740093 .messageLine1{stroke-width:1.5;stroke-dasharray:"2 2";stroke:#333}#mermaid-1582100740093 #arrowhead{fill:#333}#mermaid-1582100740093 #crosshead path{fill:#333!important;stroke:#333!important}#mermaid-1582100740093 .messageText{fill:#333;stroke:none}#mermaid-1582100740093 .labelBox{stroke:#ccf;fill:#ececff}#mermaid-1582100740093 .labelText,#mermaid-1582100740093 .loopText{fill:#000;stroke:none}#mermaid-1582100740093 .loopLine{stroke-width:2;stroke-dasharray:"2 2";marker-end:"url(#arrowhead)";stroke:#ccf}#mermaid-1582100740093 .note{stroke:#aa3;fill:#fff5ad}#mermaid-1582100740093 .noteText{fill:#000;stroke:none;font-family:trebuchet ms,verdana,arial;font-size:14px}#mermaid-1582100740093 .section{stroke:none;opacity:.2}#mermaid-1582100740093 .section0{fill:rgba(102,102,255,.49)}#mermaid-1582100740093 .section2{fill:#fff400}#mermaid-1582100740093 .section1,#mermaid-1582100740093 .section3{fill:#fff;opacity:.2}#mermaid-1582100740093 .sectionTitle0,#mermaid-1582100740093 .sectionTitle1,#mermaid-1582100740093 .sectionTitle2,#mermaid-1582100740093 .sectionTitle3{fill:#333}#mermaid-1582100740093 .sectionTitle{text-anchor:start;font-size:11px;text-height:14px}#mermaid-1582100740093 .grid .tick{stroke:#d3d3d3;opacity:.3;shape-rendering:crispEdges}#mermaid-1582100740093 .grid path{stroke-width:0}#mermaid-1582100740093 .today{fill:none;stroke:red;stroke-width:2px}#mermaid-1582100740093 .task{stroke-width:2}#mermaid-1582100740093 .taskText{text-anchor:middle;font-size:11px}#mermaid-1582100740093 .taskTextOutsideRight{fill:#000;text-anchor:start;font-size:11px}#mermaid-1582100740093 .taskTextOutsideLeft{fill:#000;text-anchor:end;font-size:11px}#mermaid-1582100740093 .taskText0,#mermaid-1582100740093 .taskText1,#mermaid-1582100740093 .taskText2,#mermaid-1582100740093 .taskText3{fill:#fff}#mermaid-1582100740093 .task0,#mermaid-1582100740093 .task1,#mermaid-1582100740093 .task2,#mermaid-1582100740093 .task3{fill:#8a90dd;stroke:#534fbc}#mermaid-1582100740093 .taskTextOutside0,#mermaid-1582100740093 .taskTextOutside1,#mermaid-1582100740093 .taskTextOutside2,#mermaid-1582100740093 .taskTextOutside3{fill:#000}#mermaid-1582100740093 .active0,#mermaid-1582100740093 .active1,#mermaid-1582100740093 .active2,#mermaid-1582100740093 .active3{fill:#bfc7ff;stroke:#534fbc}#mermaid-1582100740093 .activeText0,#mermaid-1582100740093 .activeText1,#mermaid-1582100740093 .activeText2,#mermaid-1582100740093 .activeText3{fill:#000!important}#mermaid-1582100740093 .done0,#mermaid-1582100740093 .done1,#mermaid-1582100740093 .done2,#mermaid-1582100740093 .done3{stroke:grey;fill:#d3d3d3;stroke-width:2}#mermaid-1582100740093 .doneText0,#mermaid-1582100740093 .doneText1,#mermaid-1582100740093 .doneText2,#mermaid-1582100740093 .doneText3{fill:#000!important}#mermaid-1582100740093 .crit0,#mermaid-1582100740093 .crit1,#mermaid-1582100740093 .crit2,#mermaid-1582100740093 .crit3{stroke:#f88;fill:red;stroke-width:2}#mermaid-1582100740093 .activeCrit0,#mermaid-1582100740093 .activeCrit1,#mermaid-1582100740093 .activeCrit2,#mermaid-1582100740093 .activeCrit3{stroke:#f88;fill:#bfc7ff;stroke-width:2}#mermaid-1582100740093 .doneCrit0,#mermaid-1582100740093 .doneCrit1,#mermaid-1582100740093 .doneCrit2,#mermaid-1582100740093 .doneCrit3{stroke:#f88;fill:#d3d3d3;stroke-width:2;cursor:pointer;shape-rendering:crispEdges}#mermaid-1582100740093 .activeCritText0,#mermaid-1582100740093 .activeCritText1,#mermaid-1582100740093 .activeCritText2,#mermaid-1582100740093 .activeCritText3,#mermaid-1582100740093 .doneCritText0,#mermaid-1582100740093 .doneCritText1,#mermaid-1582100740093 .doneCritText2,#mermaid-1582100740093 .doneCritText3{fill:#000!important}#mermaid-1582100740093 .titleText{text-anchor:middle;font-size:18px;fill:#000}#mermaid-1582100740093 g.classGroup text{fill:#9370db;stroke:none;font-family:trebuchet ms,verdana,arial;font-size:10px}#mermaid-1582100740093 g.classGroup rect{fill:#ececff;stroke:#9370db}#mermaid-1582100740093 g.classGroup line{stroke:#9370db;stroke-width:1}#mermaid-1582100740093 .classLabel .box{stroke:none;stroke-width:0;fill:#ececff;opacity:.5}#mermaid-1582100740093 .classLabel .label{fill:#9370db;font-size:10px}#mermaid-1582100740093 .relation{stroke:#9370db;stroke-width:1;fill:none}#mermaid-1582100740093 #compositionEnd,#mermaid-1582100740093 #compositionStart{fill:#9370db;stroke:#9370db;stroke-width:1}#mermaid-1582100740093 #aggregationEnd,#mermaid-1582100740093 #aggregationStart{fill:#ececff;stroke:#9370db;stroke-width:1}#mermaid-1582100740093 #dependencyEnd,#mermaid-1582100740093 #dependencyStart,#mermaid-1582100740093 #extensionEnd,#mermaid-1582100740093 #extensionStart{fill:#9370db;stroke:#9370db;stroke-width:1}#mermaid-1582100740093 .branch-label,#mermaid-1582100740093 .commit-id,#mermaid-1582100740093 .commit-msg{fill:#d3d3d3;color:#d3d3d3}</style><style>#mermaid-1582100740093 {
    color: rgb(0, 0, 0);
    font: normal normal 400 normal 16px / normal "Times New Roman";
  }</style><g></g><g class="grid" transform="translate(75, 1346)" fill="none" font-size="10" font-family="sans-serif" text-anchor="middle"><path class="domain" stroke="#000" d="M0.5,-1311V0.5H858.5V-1311"></path><g class="tick" opacity="1" transform="translate(0.5,0)"><line stroke="#000" y2="-1311"></line><text fill="#000" y="3" dy="1em" stroke="none" font-size="10" style="text-anchor: middle;">2020-03-01</text></g><g class="tick" opacity="1" transform="translate(122.5,0)"><line stroke="#000" y2="-1311"></line><text fill="#000" y="3" dy="1em" stroke="none" font-size="10" style="text-anchor: middle;">2020-04-01</text></g><g class="tick" opacity="1" transform="translate(240.5,0)"><line stroke="#000" y2="-1311"></line><text fill="#000" y="3" dy="1em" stroke="none" font-size="10" style="text-anchor: middle;">2020-05-01</text></g><g class="tick" opacity="1" transform="translate(362.5,0)"><line stroke="#000" y2="-1311"></line><text fill="#000" y="3" dy="1em" stroke="none" font-size="10" style="text-anchor: middle;">2020-06-01</text></g><g class="tick" opacity="1" transform="translate(480.5,0)"><line stroke="#000" y2="-1311"></line><text fill="#000" y="3" dy="1em" stroke="none" font-size="10" style="text-anchor: middle;">2020-07-01</text></g><g class="tick" opacity="1" transform="translate(602.5,0)"><line stroke="#000" y2="-1311"></line><text fill="#000" y="3" dy="1em" stroke="none" font-size="10" style="text-anchor: middle;">2020-08-01</text></g><g class="tick" opacity="1" transform="translate(724.5,0)"><line stroke="#000" y2="-1311"></line><text fill="#000" y="3" dy="1em" stroke="none" font-size="10" style="text-anchor: middle;">2020-09-01</text></g><g class="tick" opacity="1" transform="translate(842.5,0)"><line stroke="#000" y2="-1311"></line><text fill="#000" y="3" dy="1em" stroke="none" font-size="10" style="text-anchor: middle;">2020-10-01</text></g></g><g><rect x="0" y="48" width="970.5" height="24" class="section section0"></rect><rect x="0" y="72" width="970.5" height="24" class="section section0"></rect><rect x="0" y="96" width="970.5" height="24" class="section section0"></rect><rect x="0" y="120" width="970.5" height="24" class="section section0"></rect><rect x="0" y="144" width="970.5" height="24" class="section section1"></rect><rect x="0" y="168" width="970.5" height="24" class="section section1"></rect><rect x="0" y="192" width="970.5" height="24" class="section section1"></rect><rect x="0" y="216" width="970.5" height="24" class="section section1"></rect><rect x="0" y="240" width="970.5" height="24" class="section section1"></rect><rect x="0" y="264" width="970.5" height="24" class="section section1"></rect><rect x="0" y="288" width="970.5" height="24" class="section section2"></rect><rect x="0" y="312" width="970.5" height="24" class="section section2"></rect><rect x="0" y="336" width="970.5" height="24" class="section section2"></rect><rect x="0" y="360" width="970.5" height="24" class="section section2"></rect><rect x="0" y="384" width="970.5" height="24" class="section section2"></rect><rect x="0" y="408" width="970.5" height="24" class="section section2"></rect><rect x="0" y="432" width="970.5" height="24" class="section section3"></rect><rect x="0" y="456" width="970.5" height="24" class="section section3"></rect><rect x="0" y="480" width="970.5" height="24" class="section section3"></rect><rect x="0" y="504" width="970.5" height="24" class="section section3"></rect><rect x="0" y="528" width="970.5" height="24" class="section section3"></rect><rect x="0" y="552" width="970.5" height="24" class="section section3"></rect><rect x="0" y="576" width="970.5" height="24" class="section section0"></rect><rect x="0" y="600" width="970.5" height="24" class="section section0"></rect><rect x="0" y="624" width="970.5" height="24" class="section section0"></rect><rect x="0" y="648" width="970.5" height="24" class="section section0"></rect><rect x="0" y="672" width="970.5" height="24" class="section section0"></rect><rect x="0" y="696" width="970.5" height="24" class="section section1"></rect><rect x="0" y="720" width="970.5" height="24" class="section section1"></rect><rect x="0" y="744" width="970.5" height="24" class="section section1"></rect><rect x="0" y="768" width="970.5" height="24" class="section section1"></rect><rect x="0" y="792" width="970.5" height="24" class="section section1"></rect><rect x="0" y="816" width="970.5" height="24" class="section section1"></rect><rect x="0" y="840" width="970.5" height="24" class="section section2"></rect><rect x="0" y="864" width="970.5" height="24" class="section section2"></rect><rect x="0" y="888" width="970.5" height="24" class="section section2"></rect><rect x="0" y="912" width="970.5" height="24" class="section section2"></rect><rect x="0" y="936" width="970.5" height="24" class="section section2"></rect><rect x="0" y="960" width="970.5" height="24" class="section section2"></rect><rect x="0" y="984" width="970.5" height="24" class="section section3"></rect><rect x="0" y="1008" width="970.5" height="24" class="section section3"></rect><rect x="0" y="1032" width="970.5" height="24" class="section section3"></rect><rect x="0" y="1056" width="970.5" height="24" class="section section3"></rect><rect x="0" y="1080" width="970.5" height="24" class="section section3"></rect><rect x="0" y="1104" width="970.5" height="24" class="section section3"></rect><rect x="0" y="1128" width="970.5" height="24" class="section section0"></rect><rect x="0" y="1152" width="970.5" height="24" class="section section0"></rect><rect x="0" y="1176" width="970.5" height="24" class="section section0"></rect><rect x="0" y="1200" width="970.5" height="24" class="section section0"></rect><rect x="0" y="1224" width="970.5" height="24" class="section section1"></rect><rect x="0" y="1248" width="970.5" height="24" class="section section1"></rect><rect x="0" y="1272" width="970.5" height="24" class="section section1"></rect><rect x="0" y="1296" width="970.5" height="24" class="section section1"></rect><rect x="0" y="1320" width="970.5" height="24" class="section section2"></rect></g><g><rect rx="3" ry="3" x="75" y="50" width="20" height="20" class="task  task0"></rect><rect rx="3" ry="3" x="95" y="74" width="19" height="20" class="task  task0"></rect><rect rx="3" ry="3" x="114" y="98" width="12" height="20" class="task  task0"></rect><rect rx="3" ry="3" x="126" y="122" width="8" height="20" class="task  task0"></rect><rect rx="3" ry="3" x="130" y="146" width="20" height="20" class="task  task1"></rect><rect rx="3" ry="3" x="150" y="170" width="59" height="20" class="task  task1"></rect><rect rx="3" ry="3" x="209" y="194" width="39" height="20" class="task  task1"></rect><rect rx="3" ry="3" x="248" y="218" width="20" height="20" class="task  task1"></rect><rect rx="3" ry="3" x="268" y="242" width="4" height="20" class="task  task1"></rect><rect rx="3" ry="3" x="272" y="266" width="8" height="20" class="task  task1"></rect><rect rx="3" ry="3" x="272" y="290" width="39" height="20" class="task  task2"></rect><rect rx="3" ry="3" x="311" y="314" width="20" height="20" class="task  task2"></rect><rect rx="3" ry="3" x="331" y="338" width="19" height="20" class="task  task2"></rect><rect rx="3" ry="3" x="350" y="362" width="20" height="20" class="task  task2"></rect><rect rx="3" ry="3" x="370" y="386" width="4" height="20" class="task  task2"></rect><rect rx="3" ry="3" x="374" y="410" width="8" height="20" class="task  task2"></rect><rect rx="3" ry="3" x="272" y="434" width="39" height="20" class="task  task3"></rect><rect rx="3" ry="3" x="311" y="458" width="20" height="20" class="task  task3"></rect><rect rx="3" ry="3" x="331" y="482" width="19" height="20" class="task  task3"></rect><rect rx="3" ry="3" x="350" y="506" width="20" height="20" class="task  task3"></rect><rect rx="3" ry="3" x="370" y="530" width="4" height="20" class="task  task3"></rect><rect rx="3" ry="3" x="374" y="554" width="8" height="20" class="task  task3"></rect><rect rx="3" ry="3" x="378" y="578" width="55" height="20" class="task  task0"></rect><rect rx="3" ry="3" x="433" y="602" width="39" height="20" class="task  task0"></rect><rect rx="3" ry="3" x="472" y="626" width="40" height="20" class="task  task0"></rect><rect rx="3" ry="3" x="512" y="650" width="4" height="20" class="task  task0"></rect><rect rx="3" ry="3" x="516" y="674" width="19" height="20" class="task  task0"></rect><rect rx="3" ry="3" x="512" y="698" width="39" height="20" class="task  task1"></rect><rect rx="3" ry="3" x="551" y="722" width="40" height="20" class="task  task1"></rect><rect rx="3" ry="3" x="591" y="746" width="19" height="20" class="task  task1"></rect><rect rx="3" ry="3" x="610" y="770" width="20" height="20" class="task  task1"></rect><rect rx="3" ry="3" x="630" y="794" width="4" height="20" class="task  task1"></rect><rect rx="3" ry="3" x="634" y="818" width="8" height="20" class="task  task1"></rect><rect rx="3" ry="3" x="638" y="842" width="19" height="20" class="task  task2"></rect><rect rx="3" ry="3" x="657" y="866" width="40" height="20" class="task  task2"></rect><rect rx="3" ry="3" x="697" y="890" width="19" height="20" class="task  task2"></rect><rect rx="3" ry="3" x="716" y="914" width="20" height="20" class="task  task2"></rect><rect rx="3" ry="3" x="736" y="938" width="4" height="20" class="task  task2"></rect><rect rx="3" ry="3" x="740" y="962" width="8" height="20" class="task  task2"></rect><rect rx="3" ry="3" x="638" y="986" width="59" height="20" class="task  task3"></rect><rect rx="3" ry="3" x="697" y="1010" width="59" height="20" class="task  task3"></rect><rect rx="3" ry="3" x="756" y="1034" width="20" height="20" class="task  task3"></rect><rect rx="3" ry="3" x="776" y="1058" width="19" height="20" class="task  task3"></rect><rect rx="3" ry="3" x="795" y="1082" width="4" height="20" class="task  task3"></rect><rect rx="3" ry="3" x="799" y="1106" width="8" height="20" class="task  task3"></rect><rect rx="3" ry="3" x="799" y="1130" width="40" height="20" class="task  task0"></rect><rect rx="3" ry="3" x="839" y="1154" width="19" height="20" class="task  task0"></rect><rect rx="3" ry="3" x="858" y="1178" width="4" height="20" class="task  task0"></rect><rect rx="3" ry="3" x="862" y="1202" width="8" height="20" class="task  task0"></rect><rect rx="3" ry="3" x="677" y="1226" width="79" height="20" class="task  task1"></rect><rect rx="3" ry="3" x="756" y="1250" width="39" height="20" class="task  task1"></rect><rect rx="3" ry="3" x="795" y="1274" width="4" height="20" class="task  task1"></rect><rect rx="3" ry="3" x="799" y="1298" width="20" height="20" class="task  task1"></rect><rect rx="3" ry="3" x="874" y="1322" width="59" height="20" class="task  task2"></rect><text font-size="11" x="100" y="63.5" text-height="20" class="taskTextOutsideRight taskTextOutside0 ">Initial schema design </text><text font-size="11" x="119" y="87.5" text-height="20" class="taskTextOutsideRight taskTextOutside0 ">Formalize schema design </text><text font-size="11" x="131" y="111.5" text-height="20" class="taskTextOutsideRight taskTextOutside0 ">Review with peers </text><text font-size="11" x="139" y="135.5" text-height="20" class="taskTextOutsideRight taskTextOutside0 ">Review with other stakeholders </text><text font-size="11" x="155" y="159.5" text-height="20" class="taskTextOutsideRight taskTextOutside1 ">Data models/Schema </text><text font-size="11" x="214" y="183.5" text-height="20" class="taskTextOutsideRight taskTextOutside1 ">Business logic </text><text font-size="11" x="253" y="207.5" text-height="20" class="taskTextOutsideRight taskTextOutside1 ">REST API exposing business logic </text><text font-size="11" x="273" y="231.5" text-height="20" class="taskTextOutsideRight taskTextOutside1 ">Testing </text><text font-size="11" x="277" y="255.5" text-height="20" class="taskTextOutsideRight taskTextOutside1 ">Release </text><text font-size="11" x="285" y="279.5" text-height="20" class="taskTextOutsideRight taskTextOutside1 ">Post release testing </text><text font-size="11" x="316" y="303.5" text-height="20" class="taskTextOutsideRight taskTextOutside2 ">Data models/Schema </text><text font-size="11" x="336" y="327.5" text-height="20" class="taskTextOutsideRight taskTextOutside2 ">Business logic </text><text font-size="11" x="355" y="351.5" text-height="20" class="taskTextOutsideRight taskTextOutside2 ">REST API exposing business logic </text><text font-size="11" x="375" y="375.5" text-height="20" class="taskTextOutsideRight taskTextOutside2 ">Testing </text><text font-size="11" x="379" y="399.5" text-height="20" class="taskTextOutsideRight taskTextOutside2 ">Release </text><text font-size="11" x="387" y="423.5" text-height="20" class="taskTextOutsideRight taskTextOutside2 ">Post release testing </text><text font-size="11" x="316" y="447.5" text-height="20" class="taskTextOutsideRight taskTextOutside3 ">Data models/Schema </text><text font-size="11" x="336" y="471.5" text-height="20" class="taskTextOutsideRight taskTextOutside3 ">Business logic </text><text font-size="11" x="355" y="495.5" text-height="20" class="taskTextOutsideRight taskTextOutside3 ">REST API exposing business logic </text><text font-size="11" x="375" y="519.5" text-height="20" class="taskTextOutsideRight taskTextOutside3 ">Testing </text><text font-size="11" x="379" y="543.5" text-height="20" class="taskTextOutsideRight taskTextOutside3 ">Release </text><text font-size="11" x="387" y="567.5" text-height="20" class="taskTextOutsideRight taskTextOutside3 ">Post release testing </text><text font-size="11" x="438" y="591.5" text-height="20" class="taskTextOutsideRight taskTextOutside0 ">Payment gateway integration </text><text font-size="11" x="477" y="615.5" text-height="20" class="taskTextOutsideRight taskTextOutside0 ">REST API exposing business logic </text><text font-size="11" x="492" y="639.5" text-height="20" class="taskText taskText0 ">Testing </text><text font-size="11" x="521" y="663.5" text-height="20" class="taskTextOutsideRight taskTextOutside0 ">Release </text><text font-size="11" x="540" y="687.5" text-height="20" class="taskTextOutsideRight taskTextOutside0 ">Post release testing </text><text font-size="11" x="556" y="711.5" text-height="20" class="taskTextOutsideRight taskTextOutside1 ">Data models/Schema </text><text font-size="11" x="596" y="735.5" text-height="20" class="taskTextOutsideRight taskTextOutside1 ">Business logic </text><text font-size="11" x="615" y="759.5" text-height="20" class="taskTextOutsideRight taskTextOutside1 ">REST API exposing business logic </text><text font-size="11" x="635" y="783.5" text-height="20" class="taskTextOutsideRight taskTextOutside1 ">Testing </text><text font-size="11" x="639" y="807.5" text-height="20" class="taskTextOutsideRight taskTextOutside1 ">Release </text><text font-size="11" x="647" y="831.5" text-height="20" class="taskTextOutsideRight taskTextOutside1 ">Post release testing </text><text font-size="11" x="662" y="855.5" text-height="20" class="taskTextOutsideRight taskTextOutside2 ">Data models/Schema </text><text font-size="11" x="702" y="879.5" text-height="20" class="taskTextOutsideRight taskTextOutside2 ">Business logic </text><text font-size="11" x="721" y="903.5" text-height="20" class="taskTextOutsideRight taskTextOutside2 ">REST API exposing business logic </text><text font-size="11" x="741" y="927.5" text-height="20" class="taskTextOutsideRight taskTextOutside2 ">Testing </text><text font-size="11" x="745" y="951.5" text-height="20" class="taskTextOutsideRight taskTextOutside2 ">Release </text><text font-size="11" x="753" y="975.5" text-height="20" class="taskTextOutsideRight taskTextOutside2 ">Post release testing </text><text font-size="11" x="702" y="999.5" text-height="20" class="taskTextOutsideRight taskTextOutside3 ">Data models/Schema </text><text font-size="11" x="761" y="1023.5" text-height="20" class="taskTextOutsideRight taskTextOutside3 ">Business logic </text><text font-size="11" x="781" y="1047.5" text-height="20" class="taskTextOutsideRight taskTextOutside3 ">REST API exposing business logic </text><text font-size="11" x="800" y="1071.5" text-height="20" class="taskTextOutsideRight taskTextOutside3 ">Testing </text><text font-size="11" x="804" y="1095.5" text-height="20" class="taskTextOutsideRight taskTextOutside3 ">Release </text><text font-size="11" x="812" y="1119.5" text-height="20" class="taskTextOutsideRight taskTextOutside3 ">Post release testing </text><text font-size="11" x="844" y="1143.5" text-height="20" class="taskTextOutsideRight taskTextOutside0 ">Implementation </text><text font-size="11" x="863" y="1167.5" text-height="20" class="taskTextOutsideRight taskTextOutside0 ">Testing </text><text font-size="11" x="867" y="1191.5" text-height="20" class="taskTextOutsideRight taskTextOutside0 ">Release </text><text font-size="11" x="875" y="1215.5" text-height="20" class="taskTextOutsideRight taskTextOutside0 ">Post release testing </text><text font-size="11" x="716.5" y="1239.5" text-height="20" class="taskText taskText1 ">Implementation </text><text font-size="11" x="775.5" y="1263.5" text-height="20" class="taskText taskText1 ">Testing </text><text font-size="11" x="804" y="1287.5" text-height="20" class="taskTextOutsideRight taskTextOutside1 ">Release </text><text font-size="11" x="824" y="1311.5" text-height="20" class="taskTextOutsideRight taskTextOutside1 ">Post release testing </text><text font-size="11" x="869" y="1335.5" text-height="20" class="taskTextOutsideLeft taskTextOutside2 ">End-to-end testing </text></g><g><text x="10" y="98" class="sectionTitle sectionTitle0">Planning and vetting</text><text x="10" y="218" class="sectionTitle sectionTitle1">Product Service</text><text x="10" y="362" class="sectionTitle sectionTitle2">Cart and Cart Items</text><text x="10" y="506" class="sectionTitle sectionTitle3">Quote and Quote Items</text><text x="10" y="638" class="sectionTitle sectionTitle0">Transaction Service</text><text x="10" y="770" class="sectionTitle sectionTitle1">Order and Order Items</text><text x="10" y="914" class="sectionTitle sectionTitle2">Receipt and Receipt Items</text><text x="10" y="1058" class="sectionTitle sectionTitle3">Auth Service</text><text x="10" y="1178" class="sectionTitle sectionTitle0">API Gateway</text><text x="10" y="1274" class="sectionTitle sectionTitle1">Web App</text><text x="10" y="1334" class="sectionTitle sectionTitle2">Integration Testing</text></g><g class="today"><line x1="32" x2="32" y1="25" y2="1371" class="today"></line></g><text x="504" y="25" class="titleText">DISQO E-Commerce Platform - High level roadmap</text></svg>