<svg xmlns="http://www.w3.org/2000/svg" xmlns:xlink="http://www.w3.org/1999/xlink" xmlns:lucid="lucid" width="1760" height="1360"><g transform="translate(0 0)" lucid:page-tab-id="0_0"><path d="M0 0h1760v1360H0z" fill="#fff"/><path d="M611.76 78.9c0-4.43 3.58-8 8-8h520.78c4.42 0 8 3.57 8 8v26.14c0 4.4-3.58 8-8 8H619.76c-4.42 0-8-3.6-8-8z" stroke="#000" stroke-opacity="0" stroke-width="2" fill="#fff" fill-opacity="0"/><use xlink:href="#a" transform="matrix(1,0,0,1,615.759576706394,74.88936323496038) translate(67.82913580246912 23.657777777777778)"/><use xlink:href="#b" transform="matrix(1,0,0,1,615.759576706394,74.88936323496038) translate(159.53407407407406 23.657777777777778)"/><use xlink:href="#c" transform="matrix(1,0,0,1,615.759576706394,74.88936323496038) translate(328.3032098765432 23.657777777777778)"/><use xlink:href="#d" transform="matrix(1,0,0,1,615.759576706394,74.88936323496038) translate(392.2562962962963 23.657777777777778)"/><path d="M619.27 111.66h521.76M619.3 111.66h-4.03M1141 111.66h4.03" stroke="#b2b2b2" stroke-width="2" fill="none"/><path d="M611.3 119.96c0-4.42 3.6-8 8-8h521.4c4.4 0 8 3.58 8 8v4c0 4.42-3.6 8-8 8H619.3c-4.4 0-8-3.58-8-8z" stroke="#000" stroke-opacity="0" stroke-width="2" fill="#fff" fill-opacity="0"/><use xlink:href="#e" transform="matrix(1,0,0,1,615.3075907693171,115.96269656817731) translate(145.02610082304528 14.917037037037037)"/><use xlink:href="#f" transform="matrix(1,0,0,1,615.3075907693171,115.96269656817731) translate(195.84379629629632 14.917037037037037)"/><use xlink:href="#g" transform="matrix(1,0,0,1,615.3075907693171,115.96269656817731) translate(254.35212962962964 14.917037037037037)"/><use xlink:href="#h" transform="matrix(1,0,0,1,615.3075907693171,115.96269656817731) translate(266.80161522633745 14.917037037037037)"/><use xlink:href="#i" transform="matrix(1,0,0,1,615.3075907693171,115.96269656817731) translate(332.10830246913577 14.917037037037037)"/><use xlink:href="#j" transform="matrix(1,0,0,1,615.3075907693171,115.96269656817731) translate(357.60212962962964 14.917037037037037)"/><path d="M280 220h200v392H280z" fill="#fff"/><path d="M280 292h200v32H280zM280 356h200v32H280zM280 420h200v32H280zM280 484h200v32H280zM280 548h200v32H280z" fill="#e6e6e6"/><path d="M280 220h200v40H280z" fill="#ccc"/><path d="M280 220h200v392H280zM280 260h200" stroke="#000" fill="none"/><use xlink:href="#k" transform="matrix(1,0,0,1,290,220) translate(72.525 23.6)"/><use xlink:href="#l" transform="matrix(1,0,0,1,285,262.5) translate(0 17.1)"/><use xlink:href="#m" transform="matrix(1,0,0,1,285,294.5) translate(0 17.1)"/><use xlink:href="#n" transform="matrix(1,0,0,1,285,326.5) translate(0 17.1)"/><use xlink:href="#o" transform="matrix(1,0,0,1,285,358.5) translate(0 17.1)"/><use xlink:href="#p" transform="matrix(1,0,0,1,285,390.5) translate(0 17.1)"/><use xlink:href="#q" transform="matrix(1,0,0,1,285,422.5) translate(0 17.1)"/><use xlink:href="#r" transform="matrix(1,0,0,1,285,454.5) translate(0 17.1)"/><use xlink:href="#s" transform="matrix(1,0,0,1,285,486.5) translate(0 17.1)"/><use xlink:href="#t" transform="matrix(1,0,0,1,285,518.5) translate(0 17.1)"/><use xlink:href="#u" transform="matrix(1,0,0,1,285,550.5) translate(0 17.1)"/><use xlink:href="#v" transform="matrix(1,0,0,1,285,582.5) translate(0 17.1)"/><path d="M1240 900h200v200h-200z" fill="#fff"/><path d="M1240 972h200v32h-200zM1240 1036h200v32h-200z" fill="#e6e6e6"/><path d="M1240 900h200v40h-200z" fill="#ccc"/><path d="M1240 900h200v200h-200zM1240 940h200" stroke="#000" fill="none"/><use xlink:href="#w" transform="matrix(1,0,0,1,1250,900) translate(69.05 23.6)"/><use xlink:href="#l" transform="matrix(1,0,0,1,1245,942.5) translate(0 17.1)"/><use xlink:href="#x" transform="matrix(1,0,0,1,1245,974.5) translate(0 17.1)"/><use xlink:href="#y" transform="matrix(1,0,0,1,1245,1006.5) translate(0 17.1)"/><use xlink:href="#z" transform="matrix(1,0,0,1,1245,1038.5) translate(0 17.1)"/><use xlink:href="#A" transform="matrix(1,0,0,1,1245,1070.5) translate(0 17.1)"/><path d="M160 872h200v136H160z" fill="#fff"/><path d="M160 944h200v32H160z" fill="#e6e6e6"/><path d="M160 872h200v40H160z" fill="#ccc"/><path d="M160 872h200v136H160zM160 912h200" stroke="#000" fill="none"/><use xlink:href="#B" transform="matrix(1,0,0,1,170,872) translate(75.025 23.6)"/><use xlink:href="#l" transform="matrix(1,0,0,1,165,914.5) translate(0 17.1)"/><use xlink:href="#x" transform="matrix(1,0,0,1,165,946.5) translate(0 17.1)"/><use xlink:href="#v" transform="matrix(1,0,0,1,165,978.5) translate(0 17.1)"/><path d="M440 840h200v200H440z" fill="#fff"/><path d="M440 912h200v32H440zM440 976h200v32H440z" fill="#e6e6e6"/><path d="M440 840h200v40H440z" fill="#ccc"/><path d="M440 840h200v200H440zM440 880h200" stroke="#000" fill="none"/><use xlink:href="#C" transform="matrix(1,0,0,1,450,840) translate(53.074999999999996 23.6)"/><use xlink:href="#l" transform="matrix(1,0,0,1,445,882.5) translate(0 17.1)"/><use xlink:href="#D" transform="matrix(1,0,0,1,445,914.5) translate(0 17.1)"/><use xlink:href="#E" transform="matrix(1,0,0,1,445,946.5) translate(0 17.1)"/><use xlink:href="#F" transform="matrix(1,0,0,1,445,978.5) translate(0 17.1)"/><use xlink:href="#A" transform="matrix(1,0,0,1,445,1010.5) translate(0 17.1)"/><path d="M700 920h200v296H700z" fill="#fff"/><path d="M700 992h200v32H700zM700 1056h200v32H700zM700 1120h200v32H700zM700 1184h200v32H700z" fill="#e6e6e6"/><path d="M700 920h200v40H700z" fill="#ccc"/><path d="M700 920h200v296H700zM700 960h200" stroke="#000" fill="none"/><use xlink:href="#G" transform="matrix(1,0,0,1,710,920) translate(67.5 23.6)"/><use xlink:href="#l" transform="matrix(1,0,0,1,705,962.5) translate(0 17.1)"/><use xlink:href="#H" transform="matrix(1,0,0,1,705,994.5) translate(0 17.1)"/><use xlink:href="#I" transform="matrix(1,0,0,1,705,1026.5) translate(0 17.1)"/><use xlink:href="#J" transform="matrix(1,0,0,1,705,1058.5) translate(0 17.1)"/><use xlink:href="#K" transform="matrix(1,0,0,1,705,1090.5) translate(0 17.1)"/><use xlink:href="#L" transform="matrix(1,0,0,1,705,1122.5) translate(0 17.1)"/><use xlink:href="#M" transform="matrix(1,0,0,1,705,1154.5) translate(0 17.1)"/><use xlink:href="#A" transform="matrix(1,0,0,1,705,1186.5) translate(0 17.1)"/><path d="M380 632.5V742H260v109.5" stroke="#000" fill="none"/><path d="M370 632.5h20M380 612.5v20M270 851.5h-20M260 871.5v-20" stroke="#000" fill="#fff"/><path d="M1000 760h200v296h-200z" fill="#fff"/><path d="M1000 832h200v32h-200zM1000 896h200v32h-200zM1000 960h200v32h-200zM1000 1024h200v32h-200z" fill="#e6e6e6"/><path d="M1000 760h200v40h-200z" fill="#ccc"/><path d="M1000 760h200v296h-200zM1000 800h200" stroke="#000" fill="none"/><use xlink:href="#N" transform="matrix(1,0,0,1,1010,760) translate(45.55 23.6)"/><use xlink:href="#l" transform="matrix(1,0,0,1,1005,802.5) translate(0 17.1)"/><use xlink:href="#O" transform="matrix(1,0,0,1,1005,834.5) translate(0 17.1)"/><use xlink:href="#P" transform="matrix(1,0,0,1,1005,866.5) translate(0 17.1)"/><use xlink:href="#Q" transform="matrix(1,0,0,1,1005,898.5) translate(0 17.1)"/><use xlink:href="#F" transform="matrix(1,0,0,1,1005,930.5) translate(0 17.1)"/><use xlink:href="#R" transform="matrix(1,0,0,1,1005,962.5) translate(0 17.1)"/><use xlink:href="#S" transform="matrix(1,0,0,1,1005,994.5) translate(0 17.1)"/><use xlink:href="#M" transform="matrix(1,0,0,1,1005,1026.5) translate(0 17.1)"/><path d="M920.5 1104H950V880h30.1" stroke="#000" fill="none"/><path d="M920.5 1114v-20M900.5 1104h20M999.28 890l-20-10 20-10M999.28 880h-20" stroke="#000" fill="#fff"/><path d="M1260 200h200v328h-200z" fill="#fff"/><path d="M1260 272h200v32h-200zM1260 336h200v32h-200zM1260 400h200v32h-200zM1260 464h200v32h-200z" fill="#e6e6e6"/><path d="M1260 200h200v40h-200z" fill="#ccc"/><path d="M1260 200h200v328h-200zM1260 240h200" stroke="#000" fill="none"/><use xlink:href="#T" transform="matrix(1,0,0,1,1270,200) translate(63.05 23.6)"/><use xlink:href="#l" transform="matrix(1,0,0,1,1265,242.5) translate(0 17.1)"/><use xlink:href="#H" transform="matrix(1,0,0,1,1265,274.5) translate(0 17.1)"/><use xlink:href="#P" transform="matrix(1,0,0,1,1265,306.5) translate(0 17.1)"/><use xlink:href="#U" transform="matrix(1,0,0,1,1265,338.5) translate(0 17.1)"/><use xlink:href="#I" transform="matrix(1,0,0,1,1265,370.5) translate(0 17.1)"/><use xlink:href="#V" transform="matrix(1,0,0,1,1265,402.5) translate(0 17.1)"/><use xlink:href="#L" transform="matrix(1,0,0,1,1265,434.5) translate(0 17.1)"/><use xlink:href="#M" transform="matrix(1,0,0,1,1265,466.5) translate(0 17.1)"/><use xlink:href="#K" transform="matrix(1,0,0,1,1265,498.5) translate(0 17.1)"/><path d="M1540 200h200v264h-200z" fill="#fff"/><path d="M1540 272h200v32h-200zM1540 336h200v32h-200zM1540 400h200v32h-200z" fill="#e6e6e6"/><path d="M1540 200h200v40h-200z" fill="#ccc"/><path d="M1540 200h200v264h-200zM1540 240h200" stroke="#000" fill="none"/><use xlink:href="#W" transform="matrix(1,0,0,1,1550,200) translate(41.099999999999994 23.6)"/><use xlink:href="#l" transform="matrix(1,0,0,1,1545,242.5) translate(0 17.1)"/><use xlink:href="#X" transform="matrix(1,0,0,1,1545,274.5) translate(0 17.1)"/><use xlink:href="#Q" transform="matrix(1,0,0,1,1545,306.5) translate(0 17.1)"/><use xlink:href="#F" transform="matrix(1,0,0,1,1545,338.5) translate(0 17.1)"/><use xlink:href="#R" transform="matrix(1,0,0,1,1545,370.5) translate(0 17.1)"/><use xlink:href="#S" transform="matrix(1,0,0,1,1545,402.5) translate(0 17.1)"/><use xlink:href="#M" transform="matrix(1,0,0,1,1545,434.5) translate(0 17.1)"/><path d="M1480.5 352h19.5v-96h20.1" stroke="#000" fill="none"/><path d="M1480.5 362v-20M1460.5 352h20M1539.28 266l-20-10 20-10M1539.28 256h-20" stroke="#000" fill="#fff"/><path d="M900 160h280v296H900z" fill="#fff"/><path d="M900 232h280v32H900zM900 296h280v32H900zM900 360h280v32H900zM900 424h280v32H900z" fill="#e6e6e6"/><path d="M900 160h280v40H900z" fill="#ccc"/><path d="M900 160h280v296H900zM900 200h280" stroke="#000" fill="none"/><use xlink:href="#Y" transform="matrix(1,0,0,1,910,160) translate(86.05 23.6)"/><use xlink:href="#l" transform="matrix(1,0,0,1,905,202.5) translate(0 17.1)"/><use xlink:href="#x" transform="matrix(1,0,0,1,905,234.5) translate(0 17.1)"/><use xlink:href="#Z" transform="matrix(1,0,0,1,905,266.5) translate(0 17.1)"/><use xlink:href="#P" transform="matrix(1,0,0,1,905,298.5) translate(0 17.1)"/><use xlink:href="#aa" transform="matrix(1,0,0,1,905,330.5) translate(0 17.1)"/><use xlink:href="#ab" transform="matrix(1,0,0,1,905,362.5) translate(0 17.1)"/><use xlink:href="#ac" transform="matrix(1,0,0,1,905,394.5) translate(0 17.1)"/><use xlink:href="#ad" transform="matrix(1,0,0,1,905,426.5) translate(0 17.1)"/><path d="M1200.5 312h19.75V159.5H1360v20" stroke="#000" fill="none"/><path d="M1200.5 322v-20M1180.5 312h20M1370 179.5h-20M1360 199.5v-20" stroke="#000" fill="#fff"/><path d="M1520 880h200v200h-200z" fill="#fff"/><path d="M1520 952h200v32h-200zM1520 1016h200v32h-200z" fill="#e6e6e6"/><path d="M1520 880h200v40h-200z" fill="#ccc"/><path d="M1520 880h200v200h-200zM1520 920h200" stroke="#000" fill="none"/><use xlink:href="#ae" transform="matrix(1,0,0,1,1530,880) translate(47.099999999999994 23.6)"/><use xlink:href="#l" transform="matrix(1,0,0,1,1525,922.5) translate(0 17.1)"/><use xlink:href="#af" transform="matrix(1,0,0,1,1525,954.5) translate(0 17.1)"/><use xlink:href="#E" transform="matrix(1,0,0,1,1525,986.5) translate(0 17.1)"/><use xlink:href="#ag" transform="matrix(1,0,0,1,1525,1018.5) translate(0 17.1)"/><use xlink:href="#ah" transform="matrix(1,0,0,1,1525,1050.5) translate(0 17.1)"/><path d="M1460.5 988h19.5v-88h20.1" stroke="#000" fill="none"/><path d="M1460.5 998v-20M1440.5 988h20M1519.28 910l-20-10 20-10M1519.28 900h-20" stroke="#000" fill="#fff"/><path d="M740 480h200v232H740z" fill="#fff"/><path d="M740 552h200v32H740zM740 616h200v32H740zM740 680h200v32H740z" fill="#e6e6e6"/><path d="M740 480h200v40H740z" fill="#ccc"/><path d="M740 480h200v232H740zM740 520h200" stroke="#000" fill="none"/><use xlink:href="#ai" transform="matrix(1,0,0,1,750,480) translate(60.025 23.6)"/><use xlink:href="#l" transform="matrix(1,0,0,1,745,522.5) translate(0 17.1)"/><use xlink:href="#aj" transform="matrix(1,0,0,1,745,554.5) translate(0 17.1)"/><use xlink:href="#ak" transform="matrix(1,0,0,1,745,586.5) translate(0 17.1)"/><use xlink:href="#F" transform="matrix(1,0,0,1,745,618.5) translate(0 17.1)"/><use xlink:href="#al" transform="matrix(1,0,0,1,745,650.5) translate(0 17.1)"/><use xlink:href="#v" transform="matrix(1,0,0,1,745,682.5) translate(0 17.1)"/><path d="M380.5 927.94H400v64.32h20.1" stroke="#000" fill="none"/><path d="M380.5 937.94v-20M360.5 927.94h20M439.28 1002.26l-20-10 20-10M439.28 992.26h-20" stroke="#000" fill="#fff"/><path d="M500.5 275.3H690v-59.27h190.1" stroke="#000" fill="none"/><path d="M500.5 285.3v-20M480.5 275.3h20M899.28 226.03l-20-10 20-10M899.28 216.03h-20" stroke="#000" fill="#fff"/><path d="M540 1060.5V1260h560v-183.5" stroke="#000" fill="none"/><path d="M530 1060.5h20M540 1040.5v20M1090 1076.5h20M1100 1056.5v20" stroke="#000" fill="#fff"/><path d="M439 632.5V766h361v133.5" stroke="#000" fill="none"/><path d="M429 632.5h20M439 612.5v20M810 899.5h-20M800 919.5v-20" stroke="#000" fill="#fff"/><path d="M960.5 600.02H1100V740.1" stroke="#000" fill="none"/><path d="M960.5 610.02v-20M940.5 600.02h20M1090 759.28l10-20 10 20M1100 759.28v-20" stroke="#000" fill="#fff"/><path d="M960.5 567.86h620.6V860.1" stroke="#000" fill="none"/><path d="M960.5 577.86v-20M940.5 567.86h20M1571.1 879.28l10-20 10 20M1581.1 879.28v-20" stroke="#000" fill="#fff"/><path d="M719.5 567.86H540V761c-2.76 0-5 2.24-5 5s2.24 5 5 5v49.1" stroke="#000" fill="none"/><path d="M719.5 557.86v20M739.5 567.86h-20M530 839.28l10-20 10 20M540 839.28v-20" stroke="#000" fill="#fff"/><path d="M679.5 940h-20V771c-2.76 0-5-2.24-5-5s2.24-5 5-5V572.86c-2.76 0-5-2.24-5-5s2.24-5 5-5V312h220" stroke="#000" fill="none"/><path d="M679.5 930v20M699.5 940h-20M879.5 302v20M899.5 312h-20" stroke="#000" fill="#fff"/><path d="M960.5 664.34H1095c0-2.76 2.24-5 5-5s5 2.24 5 5h471.1c0-2.76 2.23-5 5-5 2.75 0 5 2.24 5 5h76.9V483.9" stroke="#000" fill="none"/><path d="M960.5 674.34v-20M940.5 664.34h20M1673 464.72l-10 20-10-20M1663 464.72v20" stroke="#000" fill="#fff"/><path d="M800 899.5V724h295c0-2.76 2.24-5 5-5s5 2.24 5 5h255v-54.66c-2.76 0-5-2.24-5-5s2.24-5 5-5v-86.48c-2.76 0-5-2.24-5-5s2.24-5 5-5V548.5" stroke="#000" fill="none"/><path d="M810 899.5h-20M800 919.5v-20M1350 548.5h20M1360 528.5v20" stroke="#000" fill="#fff"/><path d="M800 1236.5v18.5c-2.76 0-5 2.24-5 5s2.24 5 5 5v15h540v-159.5" stroke="#000" fill="none"/><path d="M790 1236.5h20M800 1216.5v20M1330 1120.5h20M1340 1100.5v20" stroke="#000" fill="#fff"/><path d="M1295 548.5v14.36c-2.76 0-5 2.24-5 5s2.24 5 5 5v86.48c-2.76 0-5 2.24-5 5s2.24 5 5 5V719c-2.76 0-5 2.24-5 5s2.24 5 5 5v150.5" stroke="#000" fill="none"/><path d="M1285 548.5h20M1295 528.5v20M1305 879.5h-20M1295 899.5v-20" stroke="#000" fill="#fff"/><defs><path fill="#b2b2b2" d="M24-248c120-7 223 5 221 122C244-46 201 0 124 0H24v-248zM76-40c74 7 117-18 117-86 0-67-45-88-117-82v168" id="am"/><path fill="#b2b2b2" d="M24 0v-248h52V0H24" id="an"/><path fill="#b2b2b2" d="M169-182c-1-43-94-46-97-3 18 66 151 10 154 114 3 95-165 93-204 36-6-8-10-19-12-30l50-8c3 46 112 56 116 5-17-69-150-10-154-114-4-87 153-88 188-35 5 8 8 18 10 28" id="ao"/><path fill="#b2b2b2" d="M140-251c80 0 125 45 125 126 0 70-33 111-92 124 6 28 34 38 68 31l-1 36C177 83 129 55 120 2 51-6 15-50 15-125c0-81 44-126 125-126zm-1 214c52 0 73-35 73-88 0-50-21-86-72-86-52 0-73 35-73 86s22 88 72 88" id="ap"/><path fill="#b2b2b2" d="M140-251c80 0 125 45 125 126S219 4 139 4C58 4 15-44 15-125s44-126 125-126zm-1 214c52 0 73-35 73-88 0-50-21-86-72-86-52 0-73 35-73 86s22 88 72 88" id="aq"/><g id="a"><use transform="matrix(0.0728395061728395,0,0,0.0728395061728395,0,0)" xlink:href="#am"/><use transform="matrix(0.0728395061728395,0,0,0.0728395061728395,18.86543209876543,0)" xlink:href="#an"/><use transform="matrix(0.0728395061728395,0,0,0.0728395061728395,26.14938271604938,0)" xlink:href="#ao"/><use transform="matrix(0.0728395061728395,0,0,0.0728395061728395,43.63086419753086,0)" xlink:href="#ap"/><use transform="matrix(0.0728395061728395,0,0,0.0728395061728395,64.02592592592592,0)" xlink:href="#aq"/></g><path fill="#b2b2b2" d="M24 0v-248h195v40H76v63h132v40H76v65h150V0H24" id="ar"/><path fill="#b2b2b2" d="M14-72v-43h91v43H14" id="as"/><path fill="#b2b2b2" d="M67-125c0 53 21 87 73 88 37 1 54-22 65-47l45 17C233-25 199 4 140 4 58 4 20-42 15-125 8-235 124-281 211-232c18 10 29 29 36 50l-46 12c-8-25-30-41-62-41-52 0-71 34-72 86" id="at"/><path fill="#b2b2b2" d="M110-194c64 0 96 36 96 99 0 64-35 99-97 99-61 0-95-36-95-99 0-62 34-99 96-99zm-1 164c35 0 45-28 45-65 0-40-10-65-43-65-34 0-45 26-45 65 0 36 10 65 43 65" id="au"/><path fill="#b2b2b2" d="M220-157c-53 9-28 100-34 157h-49v-107c1-27-5-49-29-50C55-147 81-57 75 0H25l-1-190h47c2 12-1 28 3 38 10-53 101-56 108 0 13-22 24-43 59-42 82 1 51 116 57 194h-49v-107c-1-25-5-48-29-50" id="av"/><path fill="#b2b2b2" d="M185-48c-13 30-37 53-82 52C43 2 14-33 14-96s30-98 90-98c62 0 83 45 84 108H66c0 31 8 55 39 56 18 0 30-7 34-22zm-45-69c5-46-57-63-70-21-2 6-4 13-4 21h74" id="aw"/><path fill="#b2b2b2" d="M135-150c-39-12-60 13-60 57V0H25l-1-190h47c2 13-1 29 3 40 6-28 27-53 61-41v41" id="ax"/><path fill="#b2b2b2" d="M190-63c-7 42-38 67-86 67-59 0-84-38-90-98-12-110 154-137 174-36l-49 2c-2-19-15-32-35-32-30 0-35 28-38 64-6 74 65 87 74 30" id="ay"/><g id="b"><use transform="matrix(0.0728395061728395,0,0,0.0728395061728395,0,0)" xlink:href="#ar"/><use transform="matrix(0.0728395061728395,0,0,0.0728395061728395,17.48148148148148,0)" xlink:href="#as"/><use transform="matrix(0.0728395061728395,0,0,0.0728395061728395,26.14938271604938,0)" xlink:href="#at"/><use transform="matrix(0.0728395061728395,0,0,0.0728395061728395,45.01481481481481,0)" xlink:href="#au"/><use transform="matrix(0.0728395061728395,0,0,0.0728395061728395,60.966666666666654,0)" xlink:href="#av"/><use transform="matrix(0.0728395061728395,0,0,0.0728395061728395,84.2753086419753,0)" xlink:href="#av"/><use transform="matrix(0.0728395061728395,0,0,0.0728395061728395,107.58395061728395,0)" xlink:href="#aw"/><use transform="matrix(0.0728395061728395,0,0,0.0728395061728395,122.15185185185184,0)" xlink:href="#ax"/><use transform="matrix(0.0728395061728395,0,0,0.0728395061728395,132.34938271604938,0)" xlink:href="#ay"/><use transform="matrix(0.0728395061728395,0,0,0.0728395061728395,146.91728395061727,0)" xlink:href="#aw"/></g><path fill="#b2b2b2" d="M133-34C117-15 103 5 69 4 32 3 11-16 11-54c-1-60 55-63 116-61 1-26-3-47-28-47-18 1-26 9-28 27l-52-2c7-38 36-58 82-57s74 22 75 68l1 82c-1 14 12 18 25 15v27c-30 8-71 5-69-32zm-48 3c29 0 43-24 42-57-32 0-66-3-65 30 0 17 8 27 23 27" id="az"/><path fill="#b2b2b2" d="M115-3C79 11 28 4 28-45v-112H4v-33h27l15-45h31v45h36v33H77v99c-1 23 16 31 38 25v30" id="aA"/><g id="c"><use transform="matrix(0.0728395061728395,0,0,0.0728395061728395,0,0)" xlink:href="#am"/><use transform="matrix(0.0728395061728395,0,0,0.0728395061728395,18.86543209876543,0)" xlink:href="#az"/><use transform="matrix(0.0728395061728395,0,0,0.0728395061728395,33.43333333333333,0)" xlink:href="#aA"/><use transform="matrix(0.0728395061728395,0,0,0.0728395061728395,42.10123456790124,0)" xlink:href="#az"/></g><path fill="#b2b2b2" d="M230 0l2-204L168 0h-37L68-204 70 0H24v-248h70l56 185 57-185h69V0h-46" id="aB"/><path fill="#b2b2b2" d="M88-194c31-1 46 15 58 34l-1-101h50l1 261h-48c-2-10 0-23-3-31C134-8 116 4 84 4 32 4 16-41 15-95c0-56 19-97 73-99zm17 164c33 0 40-30 41-66 1-37-9-64-41-64s-38 30-39 65c0 43 13 65 39 65" id="aC"/><path fill="#b2b2b2" d="M25 0v-261h50V0H25" id="aD"/><g id="d"><use transform="matrix(0.0728395061728395,0,0,0.0728395061728395,0,0)" xlink:href="#aB"/><use transform="matrix(0.0728395061728395,0,0,0.0728395061728395,21.77901234567901,0)" xlink:href="#au"/><use transform="matrix(0.0728395061728395,0,0,0.0728395061728395,37.73086419753086,0)" xlink:href="#aC"/><use transform="matrix(0.0728395061728395,0,0,0.0728395061728395,53.68271604938271,0)" xlink:href="#aw"/><use transform="matrix(0.0728395061728395,0,0,0.0728395061728395,68.25061728395062,0)" xlink:href="#aD"/></g><path fill="#b2b2b2" d="M190 0L58-211 59 0H30v-248h39L202-35l-2-213h31V0h-41" id="aE"/><path fill="#b2b2b2" d="M24-231v-30h32v30H24zM24 0v-190h32V0H24" id="aF"/><path fill="#b2b2b2" d="M210-169c-67 3-38 105-44 169h-31v-121c0-29-5-50-35-48C34-165 62-65 56 0H25l-1-190h30c1 10-1 24 2 32 10-44 99-50 107 0 11-21 27-35 58-36 85-2 47 119 55 194h-31v-121c0-29-5-49-35-48" id="aG"/><path fill="#b2b2b2" d="M135-143c-3-34-86-38-87 0 15 53 115 12 119 90S17 21 10-45l28-5c4 36 97 45 98 0-10-56-113-15-118-90-4-57 82-63 122-42 12 7 21 19 24 35" id="aH"/><path fill="#b2b2b2" d="M106-169C34-169 62-67 57 0H25v-261h32l-1 103c12-21 28-36 61-36 89 0 53 116 60 194h-32v-121c2-32-8-49-39-48" id="aI"/><g id="e"><use transform="matrix(0.04248971193415638,0,0,0.04248971193415638,0,0)" xlink:href="#aE"/><use transform="matrix(0.04248971193415638,0,0,0.04248971193415638,11.004835390946502,0)" xlink:href="#aF"/><use transform="matrix(0.04248971193415638,0,0,0.04248971193415638,14.361522633744855,0)" xlink:href="#aG"/><use transform="matrix(0.04248971193415638,0,0,0.04248971193415638,27.065946502057614,0)" xlink:href="#aF"/><use transform="matrix(0.04248971193415638,0,0,0.04248971193415638,30.422633744855972,0)" xlink:href="#aH"/><use transform="matrix(0.04248971193415638,0,0,0.04248971193415638,38.07078189300412,0)" xlink:href="#aI"/></g><path fill="#b2b2b2" d="M30-248c87 1 191-15 191 75 0 78-77 80-158 76V0H30v-248zm33 125c57 0 124 11 124-50 0-59-68-47-124-48v98" id="aJ"/><path fill="#b2b2b2" d="M141-36C126-15 110 5 73 4 37 3 15-17 15-53c-1-64 63-63 125-63 3-35-9-54-41-54-24 1-41 7-42 31l-33-3c5-37 33-52 76-52 45 0 72 20 72 64v82c-1 20 7 32 28 27v20c-31 9-61-2-59-35zM48-53c0 20 12 33 32 33 41-3 63-29 60-74-43 2-92-5-92 41" id="aK"/><path fill="#b2b2b2" d="M114-163C36-179 61-72 57 0H25l-1-190h30c1 12-1 29 2 39 6-27 23-49 58-41v29" id="aL"/><g id="f"><use transform="matrix(0.04248971193415638,0,0,0.04248971193415638,0,0)" xlink:href="#aJ"/><use transform="matrix(0.04248971193415638,0,0,0.04248971193415638,10.19753086419753,0)" xlink:href="#aK"/><use transform="matrix(0.04248971193415638,0,0,0.04248971193415638,18.695473251028805,0)" xlink:href="#aL"/><use transform="matrix(0.04248971193415638,0,0,0.04248971193415638,23.751748971193415,0)" xlink:href="#aG"/><use transform="matrix(0.04248971193415638,0,0,0.04248971193415638,36.45617283950617,0)" xlink:href="#aK"/><use transform="matrix(0.04248971193415638,0,0,0.04248971193415638,44.95411522633745,0)" xlink:href="#aL"/></g><path fill="#b2b2b2" d="M32 76v-337h29V76H32" id="aM"/><use transform="matrix(0.04248971193415638,0,0,0.04248971193415638,0,0)" xlink:href="#aM" id="g"/><path fill="#b2b2b2" d="M63-220v92h138v28H63V0H30v-248h175v28H63" id="aN"/><path fill="#b2b2b2" d="M100-194c63 0 86 42 84 106H49c0 40 14 67 53 68 26 1 43-12 49-29l28 8c-11 28-37 45-77 45C44 4 14-33 15-96c1-61 26-98 85-98zm52 81c6-60-76-77-97-28-3 7-6 17-6 28h103" id="aO"/><path fill="#b2b2b2" d="M115-194c53 0 69 39 70 98 0 66-23 100-70 100C84 3 66-7 56-30L54 0H23l1-261h32v101c10-23 28-34 59-34zm-8 174c40 0 45-34 45-75 0-40-5-75-45-74-42 0-51 32-51 76 0 43 10 73 51 73" id="aP"/><path fill="#b2b2b2" d="M84 4C-5 8 30-112 23-190h32v120c0 31 7 50 39 49 72-2 45-101 50-169h31l1 190h-30c-1-10 1-25-2-33-11 22-28 36-60 37" id="aQ"/><path fill="#b2b2b2" d="M179-190L93 31C79 59 56 82 12 73V49c39 6 53-20 64-50L1-190h34L92-34l54-156h33" id="aR"/><g id="h"><use transform="matrix(0.04248971193415638,0,0,0.04248971193415638,0,0)" xlink:href="#aN"/><use transform="matrix(0.04248971193415638,0,0,0.04248971193415638,9.305246913580246,0)" xlink:href="#aO"/><use transform="matrix(0.04248971193415638,0,0,0.04248971193415638,17.80318930041152,0)" xlink:href="#aP"/><use transform="matrix(0.04248971193415638,0,0,0.04248971193415638,26.301131687242794,0)" xlink:href="#aL"/><use transform="matrix(0.04248971193415638,0,0,0.04248971193415638,31.357407407407408,0)" xlink:href="#aQ"/><use transform="matrix(0.04248971193415638,0,0,0.04248971193415638,39.85534979423868,0)" xlink:href="#aK"/><use transform="matrix(0.04248971193415638,0,0,0.04248971193415638,48.35329218106995,0)" xlink:href="#aL"/><use transform="matrix(0.04248971193415638,0,0,0.04248971193415638,53.40956790123455,0)" xlink:href="#aR"/></g><path fill="#b2b2b2" d="M27 0v-27h64v-190l-56 39v-29l58-41h29v221h61V0H27" id="aS"/><path fill="#b2b2b2" d="M134-131c28 9 52 24 51 62-1 50-34 73-85 73S17-19 16-69c0-36 21-54 49-61-75-25-45-126 34-121 46 3 78 18 79 63 0 33-17 51-44 57zm-34-11c31 1 46-15 46-44 0-28-17-43-47-42-29 0-46 13-45 42 1 28 16 44 46 44zm1 122c35 0 51-18 51-52 0-30-18-46-53-46-33 0-51 17-51 47 0 34 19 51 53 51" id="aT"/><path fill="#b2b2b2" d="M68-38c1 34 0 65-14 84H32c9-13 17-26 17-46H33v-38h35" id="aU"/><g id="i"><use transform="matrix(0.04248971193415638,0,0,0.04248971193415638,0,0)" xlink:href="#aS"/><use transform="matrix(0.04248971193415638,0,0,0.04248971193415638,8.497942386831275,0)" xlink:href="#aT"/><use transform="matrix(0.04248971193415638,0,0,0.04248971193415638,16.99588477366255,0)" xlink:href="#aU"/></g><path fill="#b2b2b2" d="M101-251c82-7 93 87 43 132L82-64C71-53 59-42 53-27h129V0H18c2-99 128-94 128-182 0-28-16-43-45-43s-46 15-49 41l-32-3c6-41 34-60 81-64" id="aV"/><path fill="#b2b2b2" d="M101-251c68 0 85 55 85 127S166 4 100 4C33 4 14-52 14-124c0-73 17-127 87-127zm-1 229c47 0 54-49 54-102s-4-102-53-102c-51 0-55 48-55 102 0 53 5 102 54 102" id="aW"/><g id="j"><use transform="matrix(0.04248971193415638,0,0,0.04248971193415638,0,0)" xlink:href="#aV"/><use transform="matrix(0.04248971193415638,0,0,0.04248971193415638,8.497942386831275,0)" xlink:href="#aW"/><use transform="matrix(0.04248971193415638,0,0,0.04248971193415638,16.99588477366255,0)" xlink:href="#aV"/><use transform="matrix(0.04248971193415638,0,0,0.04248971193415638,25.493827160493822,0)" xlink:href="#aW"/></g><path d="M84 4C-5 8 30-112 23-190h32v120c0 31 7 50 39 49 72-2 45-101 50-169h31l1 190h-30c-1-10 1-25-2-33-11 22-28 36-60 37" id="aX"/><path d="M135-143c-3-34-86-38-87 0 15 53 115 12 119 90S17 21 10-45l28-5c4 36 97 45 98 0-10-56-113-15-118-90-4-57 82-63 122-42 12 7 21 19 24 35" id="aY"/><path d="M100-194c63 0 86 42 84 106H49c0 40 14 67 53 68 26 1 43-12 49-29l28 8c-11 28-37 45-77 45C44 4 14-33 15-96c1-61 26-98 85-98zm52 81c6-60-76-77-97-28-3 7-6 17-6 28h103" id="aZ"/><path d="M114-163C36-179 61-72 57 0H25l-1-190h30c1 12-1 29 2 39 6-27 23-49 58-41v29" id="ba"/><g id="k"><use transform="matrix(0.05,0,0,0.05,0,0)" xlink:href="#aX"/><use transform="matrix(0.05,0,0,0.05,10,0)" xlink:href="#aY"/><use transform="matrix(0.05,0,0,0.05,19,0)" xlink:href="#aZ"/><use transform="matrix(0.05,0,0,0.05,29,0)" xlink:href="#ba"/></g><path d="M24-231v-30h32v30H24zM24 0v-190h32V0H24" id="bb"/><path d="M85-194c31 0 48 13 60 33l-1-100h32l1 261h-30c-2-10 0-23-3-31C134-8 116 4 85 4 32 4 16-35 15-94c0-66 23-100 70-100zm9 24c-40 0-46 34-46 75 0 40 6 74 45 74 42 0 51-32 51-76 0-42-9-74-50-73" id="bc"/><g id="l"><use transform="matrix(0.05,0,0,0.05,0,0)" xlink:href="#bb"/><use transform="matrix(0.05,0,0,0.05,3.95,0)" xlink:href="#bc"/></g><path d="M101-234c-31-9-42 10-38 44h38v23H63V0H32v-167H5v-23h27c-7-52 17-82 69-68v24" id="bd"/><path d="M59-47c-2 24 18 29 38 22v24C64 9 27 4 27-40v-127H5v-23h24l9-43h21v43h35v23H59v120" id="be"/><path d="M-5 72V49h209v23H-5" id="bf"/><path d="M117-194c89-4 53 116 60 194h-32v-121c0-31-8-49-39-48C34-167 62-67 57 0H25l-1-190h30c1 10-1 24 2 32 11-22 29-35 61-36" id="bg"/><path d="M141-36C126-15 110 5 73 4 37 3 15-17 15-53c-1-64 63-63 125-63 3-35-9-54-41-54-24 1-41 7-42 31l-33-3c5-37 33-52 76-52 45 0 72 20 72 64v82c-1 20 7 32 28 27v20c-31 9-61-2-59-35zM48-53c0 20 12 33 32 33 41-3 63-29 60-74-43 2-92-5-92 41" id="bh"/><path d="M210-169c-67 3-38 105-44 169h-31v-121c0-29-5-50-35-48C34-165 62-65 56 0H25l-1-190h30c1 10-1 24 2 32 10-44 99-50 107 0 11-21 27-35 58-36 85-2 47 119 55 194h-31v-121c0-29-5-49-35-48" id="bi"/><g id="m"><use transform="matrix(0.05,0,0,0.05,0,0)" xlink:href="#bd"/><use transform="matrix(0.05,0,0,0.05,5,0)" xlink:href="#bb"/><use transform="matrix(0.05,0,0,0.05,8.95,0)" xlink:href="#ba"/><use transform="matrix(0.05,0,0,0.05,14.899999999999999,0)" xlink:href="#aY"/><use transform="matrix(0.05,0,0,0.05,23.9,0)" xlink:href="#be"/><use transform="matrix(0.05,0,0,0.05,28.899999999999995,0)" xlink:href="#bf"/><use transform="matrix(0.05,0,0,0.05,38.9,0)" xlink:href="#bg"/><use transform="matrix(0.05,0,0,0.05,48.9,0)" xlink:href="#bh"/><use transform="matrix(0.05,0,0,0.05,58.900000000000006,0)" xlink:href="#bi"/><use transform="matrix(0.05,0,0,0.05,73.85,0)" xlink:href="#aZ"/></g><path d="M24 0v-261h32V0H24" id="bj"/><g id="n"><use transform="matrix(0.05,0,0,0.05,0,0)" xlink:href="#bj"/><use transform="matrix(0.05,0,0,0.05,3.95,0)" xlink:href="#bh"/><use transform="matrix(0.05,0,0,0.05,13.949999999999998,0)" xlink:href="#aY"/><use transform="matrix(0.05,0,0,0.05,22.95,0)" xlink:href="#be"/><use transform="matrix(0.05,0,0,0.05,27.950000000000003,0)" xlink:href="#bf"/><use transform="matrix(0.05,0,0,0.05,37.95,0)" xlink:href="#bg"/><use transform="matrix(0.05,0,0,0.05,47.95,0)" xlink:href="#bh"/><use transform="matrix(0.05,0,0,0.05,57.95,0)" xlink:href="#bi"/><use transform="matrix(0.05,0,0,0.05,72.9,0)" xlink:href="#aZ"/></g><g id="o"><use transform="matrix(0.05,0,0,0.05,0,0)" xlink:href="#aZ"/><use transform="matrix(0.05,0,0,0.05,10,0)" xlink:href="#bi"/><use transform="matrix(0.05,0,0,0.05,24.950000000000003,0)" xlink:href="#bh"/><use transform="matrix(0.05,0,0,0.05,34.95,0)" xlink:href="#bb"/><use transform="matrix(0.05,0,0,0.05,38.900000000000006,0)" xlink:href="#bj"/></g><path d="M27 0v-27h64v-190l-56 39v-29l58-41h29v221h61V0H27" id="bk"/><g id="p"><use transform="matrix(0.05,0,0,0.05,0,0)" xlink:href="#bh"/><use transform="matrix(0.05,0,0,0.05,10,0)" xlink:href="#bc"/><use transform="matrix(0.05,0,0,0.05,20,0)" xlink:href="#bc"/><use transform="matrix(0.05,0,0,0.05,30,0)" xlink:href="#ba"/><use transform="matrix(0.05,0,0,0.05,35.95,0)" xlink:href="#aZ"/><use transform="matrix(0.05,0,0,0.05,45.95,0)" xlink:href="#aY"/><use transform="matrix(0.05,0,0,0.05,54.95,0)" xlink:href="#aY"/><use transform="matrix(0.05,0,0,0.05,63.95,0)" xlink:href="#bf"/><use transform="matrix(0.05,0,0,0.05,73.95,0)" xlink:href="#bk"/></g><path d="M101-251c82-7 93 87 43 132L82-64C71-53 59-42 53-27h129V0H18c2-99 128-94 128-182 0-28-16-43-45-43s-46 15-49 41l-32-3c6-41 34-60 81-64" id="bl"/><g id="q"><use transform="matrix(0.05,0,0,0.05,0,0)" xlink:href="#bh"/><use transform="matrix(0.05,0,0,0.05,10,0)" xlink:href="#bc"/><use transform="matrix(0.05,0,0,0.05,20,0)" xlink:href="#bc"/><use transform="matrix(0.05,0,0,0.05,30,0)" xlink:href="#ba"/><use transform="matrix(0.05,0,0,0.05,35.95,0)" xlink:href="#aZ"/><use transform="matrix(0.05,0,0,0.05,45.95,0)" xlink:href="#aY"/><use transform="matrix(0.05,0,0,0.05,54.95,0)" xlink:href="#aY"/><use transform="matrix(0.05,0,0,0.05,63.95,0)" xlink:href="#bf"/><use transform="matrix(0.05,0,0,0.05,73.95,0)" xlink:href="#bl"/></g><path d="M96-169c-40 0-48 33-48 73s9 75 48 75c24 0 41-14 43-38l32 2c-6 37-31 61-74 61-59 0-76-41-82-99-10-93 101-131 147-64 4 7 5 14 7 22l-32 3c-4-21-16-35-41-35" id="bm"/><path d="M179-190L93 31C79 59 56 82 12 73V49c39 6 53-20 64-50L1-190h34L92-34l54-156h33" id="bn"/><g id="r"><use transform="matrix(0.05,0,0,0.05,0,0)" xlink:href="#bm"/><use transform="matrix(0.05,0,0,0.05,9,0)" xlink:href="#bb"/><use transform="matrix(0.05,0,0,0.05,12.949999999999998,0)" xlink:href="#be"/><use transform="matrix(0.05,0,0,0.05,17.95,0)" xlink:href="#bn"/></g><g id="s"><use transform="matrix(0.05,0,0,0.05,0,0)" xlink:href="#aY"/><use transform="matrix(0.05,0,0,0.05,9,0)" xlink:href="#be"/><use transform="matrix(0.05,0,0,0.05,14,0)" xlink:href="#bh"/><use transform="matrix(0.05,0,0,0.05,24,0)" xlink:href="#be"/><use transform="matrix(0.05,0,0,0.05,29,0)" xlink:href="#aZ"/></g><path d="M9 0v-24l116-142H16v-24h144v24L44-24h123V0H9" id="bo"/><path d="M115-194c55 1 70 41 70 98S169 2 115 4C84 4 66-9 55-30l1 105H24l-1-265h31l2 30c10-21 28-34 59-34zm-8 174c40 0 45-34 45-75s-6-73-45-74c-42 0-51 32-51 76 0 43 10 73 51 73" id="bp"/><path d="M100-194c62-1 85 37 85 99 1 63-27 99-86 99S16-35 15-95c0-66 28-99 85-99zM99-20c44 1 53-31 53-75 0-43-8-75-51-75s-53 32-53 75 10 74 51 75" id="bq"/><g id="t"><use transform="matrix(0.05,0,0,0.05,0,0)" xlink:href="#bo"/><use transform="matrix(0.05,0,0,0.05,9,0)" xlink:href="#bb"/><use transform="matrix(0.05,0,0,0.05,12.949999999999998,0)" xlink:href="#bp"/><use transform="matrix(0.05,0,0,0.05,22.95,0)" xlink:href="#bf"/><use transform="matrix(0.05,0,0,0.05,32.95,0)" xlink:href="#bm"/><use transform="matrix(0.05,0,0,0.05,41.95,0)" xlink:href="#bq"/><use transform="matrix(0.05,0,0,0.05,51.95,0)" xlink:href="#bc"/><use transform="matrix(0.05,0,0,0.05,61.95,0)" xlink:href="#aZ"/></g><path d="M106-169C34-169 62-67 57 0H25v-261h32l-1 103c12-21 28-36 61-36 89 0 53 116 60 194h-32v-121c2-32-8-49-39-48" id="br"/><g id="u"><use transform="matrix(0.05,0,0,0.05,0,0)" xlink:href="#bp"/><use transform="matrix(0.05,0,0,0.05,10,0)" xlink:href="#br"/><use transform="matrix(0.05,0,0,0.05,20,0)" xlink:href="#bq"/><use transform="matrix(0.05,0,0,0.05,30,0)" xlink:href="#bg"/><use transform="matrix(0.05,0,0,0.05,40,0)" xlink:href="#aZ"/></g><path d="M108 0H70L1-190h34L89-25l56-165h34" id="bs"/><g id="v"><use transform="matrix(0.05,0,0,0.05,0,0)" xlink:href="#bb"/><use transform="matrix(0.05,0,0,0.05,3.95,0)" xlink:href="#aY"/><use transform="matrix(0.05,0,0,0.05,12.949999999999998,0)" xlink:href="#bf"/><use transform="matrix(0.05,0,0,0.05,22.95,0)" xlink:href="#bh"/><use transform="matrix(0.05,0,0,0.05,32.95,0)" xlink:href="#bm"/><use transform="matrix(0.05,0,0,0.05,41.95,0)" xlink:href="#be"/><use transform="matrix(0.05,0,0,0.05,46.95,0)" xlink:href="#bb"/><use transform="matrix(0.05,0,0,0.05,50.900000000000006,0)" xlink:href="#bs"/><use transform="matrix(0.05,0,0,0.05,59.900000000000006,0)" xlink:href="#aZ"/></g><g id="w"><use transform="matrix(0.05,0,0,0.05,0,0)" xlink:href="#bq"/><use transform="matrix(0.05,0,0,0.05,10,0)" xlink:href="#ba"/><use transform="matrix(0.05,0,0,0.05,15.949999999999998,0)" xlink:href="#bc"/><use transform="matrix(0.05,0,0,0.05,25.950000000000003,0)" xlink:href="#aZ"/><use transform="matrix(0.05,0,0,0.05,35.95,0)" xlink:href="#ba"/></g><g id="x"><use transform="matrix(0.05,0,0,0.05,0,0)" xlink:href="#aX"/><use transform="matrix(0.05,0,0,0.05,10,0)" xlink:href="#aY"/><use transform="matrix(0.05,0,0,0.05,19,0)" xlink:href="#aZ"/><use transform="matrix(0.05,0,0,0.05,29,0)" xlink:href="#ba"/><use transform="matrix(0.05,0,0,0.05,34.95,0)" xlink:href="#bf"/><use transform="matrix(0.05,0,0,0.05,44.95,0)" xlink:href="#bb"/><use transform="matrix(0.05,0,0,0.05,48.900000000000006,0)" xlink:href="#bc"/></g><path d="M145-31C134-9 116 4 85 4 32 4 16-35 15-94c0-59 17-99 70-100 32-1 48 14 60 33 0-11-1-24 2-32h30l-1 268h-32zM93-21c41 0 51-33 51-76s-8-73-50-73c-40 0-46 35-46 75s5 74 45 74" id="bt"/><g id="y"><use transform="matrix(0.05,0,0,0.05,0,0)" xlink:href="#bt"/><use transform="matrix(0.05,0,0,0.05,10,0)" xlink:href="#aX"/><use transform="matrix(0.05,0,0,0.05,20,0)" xlink:href="#bq"/><use transform="matrix(0.05,0,0,0.05,30,0)" xlink:href="#be"/><use transform="matrix(0.05,0,0,0.05,35,0)" xlink:href="#aZ"/><use transform="matrix(0.05,0,0,0.05,45,0)" xlink:href="#bf"/><use transform="matrix(0.05,0,0,0.05,55,0)" xlink:href="#bb"/><use transform="matrix(0.05,0,0,0.05,58.95,0)" xlink:href="#bc"/></g><g id="z"><use transform="matrix(0.05,0,0,0.05,0,0)" xlink:href="#ba"/><use transform="matrix(0.05,0,0,0.05,5.95,0)" xlink:href="#aZ"/><use transform="matrix(0.05,0,0,0.05,15.949999999999998,0)" xlink:href="#bm"/><use transform="matrix(0.05,0,0,0.05,24.95,0)" xlink:href="#aZ"/><use transform="matrix(0.05,0,0,0.05,34.95,0)" xlink:href="#bb"/><use transform="matrix(0.05,0,0,0.05,38.900000000000006,0)" xlink:href="#bp"/><use transform="matrix(0.05,0,0,0.05,48.900000000000006,0)" xlink:href="#be"/><use transform="matrix(0.05,0,0,0.05,53.900000000000006,0)" xlink:href="#bf"/><use transform="matrix(0.05,0,0,0.05,63.900000000000006,0)" xlink:href="#bb"/><use transform="matrix(0.05,0,0,0.05,67.85000000000001,0)" xlink:href="#bc"/></g><g id="A"><use transform="matrix(0.05,0,0,0.05,0,0)" xlink:href="#aY"/><use transform="matrix(0.05,0,0,0.05,9,0)" xlink:href="#be"/><use transform="matrix(0.05,0,0,0.05,14,0)" xlink:href="#bh"/><use transform="matrix(0.05,0,0,0.05,24,0)" xlink:href="#be"/><use transform="matrix(0.05,0,0,0.05,29,0)" xlink:href="#aX"/><use transform="matrix(0.05,0,0,0.05,39,0)" xlink:href="#aY"/></g><g id="B"><use transform="matrix(0.05,0,0,0.05,0,0)" xlink:href="#bm"/><use transform="matrix(0.05,0,0,0.05,9,0)" xlink:href="#bh"/><use transform="matrix(0.05,0,0,0.05,19,0)" xlink:href="#ba"/><use transform="matrix(0.05,0,0,0.05,24.95,0)" xlink:href="#be"/></g><g id="C"><use transform="matrix(0.05,0,0,0.05,0,0)" xlink:href="#bm"/><use transform="matrix(0.05,0,0,0.05,9,0)" xlink:href="#bh"/><use transform="matrix(0.05,0,0,0.05,19,0)" xlink:href="#ba"/><use transform="matrix(0.05,0,0,0.05,24.95,0)" xlink:href="#be"/><use transform="matrix(0.05,0,0,0.05,29.950000000000003,0)" xlink:href="#bf"/><use transform="matrix(0.05,0,0,0.05,39.95,0)" xlink:href="#bb"/><use transform="matrix(0.05,0,0,0.05,43.900000000000006,0)" xlink:href="#be"/><use transform="matrix(0.05,0,0,0.05,48.900000000000006,0)" xlink:href="#aZ"/><use transform="matrix(0.05,0,0,0.05,58.900000000000006,0)" xlink:href="#bi"/></g><g id="D"><use transform="matrix(0.05,0,0,0.05,0,0)" xlink:href="#bm"/><use transform="matrix(0.05,0,0,0.05,9,0)" xlink:href="#bh"/><use transform="matrix(0.05,0,0,0.05,19,0)" xlink:href="#ba"/><use transform="matrix(0.05,0,0,0.05,24.95,0)" xlink:href="#be"/><use transform="matrix(0.05,0,0,0.05,29.950000000000003,0)" xlink:href="#bf"/><use transform="matrix(0.05,0,0,0.05,39.95,0)" xlink:href="#bb"/><use transform="matrix(0.05,0,0,0.05,43.900000000000006,0)" xlink:href="#bc"/></g><g id="E"><use transform="matrix(0.05,0,0,0.05,0,0)" xlink:href="#bp"/><use transform="matrix(0.05,0,0,0.05,10,0)" xlink:href="#ba"/><use transform="matrix(0.05,0,0,0.05,15.949999999999998,0)" xlink:href="#bq"/><use transform="matrix(0.05,0,0,0.05,25.950000000000003,0)" xlink:href="#bc"/><use transform="matrix(0.05,0,0,0.05,35.95,0)" xlink:href="#aX"/><use transform="matrix(0.05,0,0,0.05,45.95,0)" xlink:href="#bm"/><use transform="matrix(0.05,0,0,0.05,54.95,0)" xlink:href="#be"/><use transform="matrix(0.05,0,0,0.05,59.95,0)" xlink:href="#bf"/><use transform="matrix(0.05,0,0,0.05,69.95,0)" xlink:href="#bb"/><use transform="matrix(0.05,0,0,0.05,73.9,0)" xlink:href="#bc"/></g><g id="F"><use transform="matrix(0.05,0,0,0.05,0,0)" xlink:href="#bp"/><use transform="matrix(0.05,0,0,0.05,10,0)" xlink:href="#ba"/><use transform="matrix(0.05,0,0,0.05,15.949999999999998,0)" xlink:href="#bb"/><use transform="matrix(0.05,0,0,0.05,19.9,0)" xlink:href="#bm"/><use transform="matrix(0.05,0,0,0.05,28.899999999999995,0)" xlink:href="#aZ"/></g><g id="G"><use transform="matrix(0.05,0,0,0.05,0,0)" xlink:href="#bt"/><use transform="matrix(0.05,0,0,0.05,10,0)" xlink:href="#aX"/><use transform="matrix(0.05,0,0,0.05,20,0)" xlink:href="#bq"/><use transform="matrix(0.05,0,0,0.05,30,0)" xlink:href="#be"/><use transform="matrix(0.05,0,0,0.05,35,0)" xlink:href="#aZ"/></g><g id="H"><use transform="matrix(0.05,0,0,0.05,0,0)" xlink:href="#aX"/><use transform="matrix(0.05,0,0,0.05,10,0)" xlink:href="#aY"/><use transform="matrix(0.05,0,0,0.05,19,0)" xlink:href="#aZ"/><use transform="matrix(0.05,0,0,0.05,29,0)" xlink:href="#ba"/><use transform="matrix(0.05,0,0,0.05,34.95,0)" xlink:href="#bf"/><use transform="matrix(0.05,0,0,0.05,44.95,0)" xlink:href="#bb"/><use transform="matrix(0.05,0,0,0.05,48.900000000000006,0)" xlink:href="#bc"/></g><path d="M115-194c53 0 69 39 70 98 0 66-23 100-70 100C84 3 66-7 56-30L54 0H23l1-261h32v101c10-23 28-34 59-34zm-8 174c40 0 45-34 45-75 0-40-5-75-45-74-42 0-51 32-51 76 0 43 10 73 51 73" id="bu"/><g id="I"><use transform="matrix(0.05,0,0,0.05,0,0)" xlink:href="#aY"/><use transform="matrix(0.05,0,0,0.05,9,0)" xlink:href="#aX"/><use transform="matrix(0.05,0,0,0.05,19,0)" xlink:href="#bu"/><use transform="matrix(0.05,0,0,0.05,29,0)" xlink:href="#be"/><use transform="matrix(0.05,0,0,0.05,34,0)" xlink:href="#bq"/><use transform="matrix(0.05,0,0,0.05,44,0)" xlink:href="#be"/><use transform="matrix(0.05,0,0,0.05,49,0)" xlink:href="#bh"/><use transform="matrix(0.05,0,0,0.05,59,0)" xlink:href="#bj"/></g><path d="M177-190C167-65 218 103 67 71c-23-6-38-20-44-43l32-5c15 47 100 32 89-28v-30C133-14 115 1 83 1 29 1 15-40 15-95c0-56 16-97 71-98 29-1 48 16 59 35 1-10 0-23 2-32h30zM94-22c36 0 50-32 50-73 0-42-14-75-50-75-39 0-46 34-46 75s6 73 46 73" id="bv"/><g id="J"><use transform="matrix(0.05,0,0,0.05,0,0)" xlink:href="#aY"/><use transform="matrix(0.05,0,0,0.05,9,0)" xlink:href="#br"/><use transform="matrix(0.05,0,0,0.05,19,0)" xlink:href="#bb"/><use transform="matrix(0.05,0,0,0.05,22.95,0)" xlink:href="#bp"/><use transform="matrix(0.05,0,0,0.05,32.95,0)" xlink:href="#bp"/><use transform="matrix(0.05,0,0,0.05,42.95,0)" xlink:href="#bb"/><use transform="matrix(0.05,0,0,0.05,46.900000000000006,0)" xlink:href="#bg"/><use transform="matrix(0.05,0,0,0.05,56.900000000000006,0)" xlink:href="#bv"/><use transform="matrix(0.05,0,0,0.05,66.9,0)" xlink:href="#bf"/><use transform="matrix(0.05,0,0,0.05,76.9,0)" xlink:href="#be"/><use transform="matrix(0.05,0,0,0.05,81.9,0)" xlink:href="#bq"/><use transform="matrix(0.05,0,0,0.05,91.9,0)" xlink:href="#be"/><use transform="matrix(0.05,0,0,0.05,96.9,0)" xlink:href="#bh"/><use transform="matrix(0.05,0,0,0.05,106.9,0)" xlink:href="#bj"/></g><g id="K"><use transform="matrix(0.05,0,0,0.05,0,0)" xlink:href="#bp"/><use transform="matrix(0.05,0,0,0.05,10,0)" xlink:href="#ba"/><use transform="matrix(0.05,0,0,0.05,15.949999999999998,0)" xlink:href="#bq"/><use transform="matrix(0.05,0,0,0.05,25.950000000000003,0)" xlink:href="#bi"/><use transform="matrix(0.05,0,0,0.05,40.9,0)" xlink:href="#bq"/><use transform="matrix(0.05,0,0,0.05,50.9,0)" xlink:href="#bf"/><use transform="matrix(0.05,0,0,0.05,60.900000000000006,0)" xlink:href="#bm"/><use transform="matrix(0.05,0,0,0.05,69.9,0)" xlink:href="#bq"/><use transform="matrix(0.05,0,0,0.05,79.9,0)" xlink:href="#bc"/><use transform="matrix(0.05,0,0,0.05,89.9,0)" xlink:href="#aZ"/></g><path d="M141 0L90-78 38 0H4l68-98-65-92h35l48 74 47-74h35l-64 92 68 98h-35" id="bw"/><g id="L"><use transform="matrix(0.05,0,0,0.05,0,0)" xlink:href="#be"/><use transform="matrix(0.05,0,0,0.05,5,0)" xlink:href="#bh"/><use transform="matrix(0.05,0,0,0.05,15,0)" xlink:href="#bw"/><use transform="matrix(0.05,0,0,0.05,24,0)" xlink:href="#bf"/><use transform="matrix(0.05,0,0,0.05,34,0)" xlink:href="#be"/><use transform="matrix(0.05,0,0,0.05,39,0)" xlink:href="#bq"/><use transform="matrix(0.05,0,0,0.05,49,0)" xlink:href="#be"/><use transform="matrix(0.05,0,0,0.05,54,0)" xlink:href="#bh"/><use transform="matrix(0.05,0,0,0.05,64,0)" xlink:href="#bj"/></g><g id="M"><use transform="matrix(0.05,0,0,0.05,0,0)" xlink:href="#be"/><use transform="matrix(0.05,0,0,0.05,5,0)" xlink:href="#bq"/><use transform="matrix(0.05,0,0,0.05,15,0)" xlink:href="#be"/><use transform="matrix(0.05,0,0,0.05,20,0)" xlink:href="#bh"/><use transform="matrix(0.05,0,0,0.05,30,0)" xlink:href="#bj"/></g><g id="N"><use transform="matrix(0.05,0,0,0.05,0,0)" xlink:href="#bt"/><use transform="matrix(0.05,0,0,0.05,10,0)" xlink:href="#aX"/><use transform="matrix(0.05,0,0,0.05,20,0)" xlink:href="#bq"/><use transform="matrix(0.05,0,0,0.05,30,0)" xlink:href="#be"/><use transform="matrix(0.05,0,0,0.05,35,0)" xlink:href="#aZ"/><use transform="matrix(0.05,0,0,0.05,45,0)" xlink:href="#bf"/><use transform="matrix(0.05,0,0,0.05,55,0)" xlink:href="#bb"/><use transform="matrix(0.05,0,0,0.05,58.95,0)" xlink:href="#be"/><use transform="matrix(0.05,0,0,0.05,63.95,0)" xlink:href="#aZ"/><use transform="matrix(0.05,0,0,0.05,73.95,0)" xlink:href="#bi"/></g><g id="O"><use transform="matrix(0.05,0,0,0.05,0,0)" xlink:href="#bm"/><use transform="matrix(0.05,0,0,0.05,9,0)" xlink:href="#bh"/><use transform="matrix(0.05,0,0,0.05,19,0)" xlink:href="#ba"/><use transform="matrix(0.05,0,0,0.05,24.95,0)" xlink:href="#be"/><use transform="matrix(0.05,0,0,0.05,29.950000000000003,0)" xlink:href="#bf"/><use transform="matrix(0.05,0,0,0.05,39.95,0)" xlink:href="#bb"/><use transform="matrix(0.05,0,0,0.05,43.900000000000006,0)" xlink:href="#be"/><use transform="matrix(0.05,0,0,0.05,48.900000000000006,0)" xlink:href="#aZ"/><use transform="matrix(0.05,0,0,0.05,58.900000000000006,0)" xlink:href="#bi"/><use transform="matrix(0.05,0,0,0.05,73.85000000000001,0)" xlink:href="#bf"/><use transform="matrix(0.05,0,0,0.05,83.85000000000001,0)" xlink:href="#bb"/><use transform="matrix(0.05,0,0,0.05,87.80000000000001,0)" xlink:href="#bc"/></g><g id="P"><use transform="matrix(0.05,0,0,0.05,0,0)" xlink:href="#bt"/><use transform="matrix(0.05,0,0,0.05,10,0)" xlink:href="#aX"/><use transform="matrix(0.05,0,0,0.05,20,0)" xlink:href="#bq"/><use transform="matrix(0.05,0,0,0.05,30,0)" xlink:href="#be"/><use transform="matrix(0.05,0,0,0.05,35,0)" xlink:href="#aZ"/><use transform="matrix(0.05,0,0,0.05,45,0)" xlink:href="#bf"/><use transform="matrix(0.05,0,0,0.05,55,0)" xlink:href="#bb"/><use transform="matrix(0.05,0,0,0.05,58.95,0)" xlink:href="#bc"/></g><g id="Q"><use transform="matrix(0.05,0,0,0.05,0,0)" xlink:href="#bp"/><use transform="matrix(0.05,0,0,0.05,10,0)" xlink:href="#ba"/><use transform="matrix(0.05,0,0,0.05,15.949999999999998,0)" xlink:href="#bq"/><use transform="matrix(0.05,0,0,0.05,25.950000000000003,0)" xlink:href="#bc"/><use transform="matrix(0.05,0,0,0.05,35.95,0)" xlink:href="#aX"/><use transform="matrix(0.05,0,0,0.05,45.95,0)" xlink:href="#bm"/><use transform="matrix(0.05,0,0,0.05,54.95,0)" xlink:href="#be"/><use transform="matrix(0.05,0,0,0.05,59.95,0)" xlink:href="#bf"/><use transform="matrix(0.05,0,0,0.05,69.95,0)" xlink:href="#bb"/><use transform="matrix(0.05,0,0,0.05,73.9,0)" xlink:href="#bc"/></g><g id="R"><use transform="matrix(0.05,0,0,0.05,0,0)" xlink:href="#bc"/><use transform="matrix(0.05,0,0,0.05,10,0)" xlink:href="#bb"/><use transform="matrix(0.05,0,0,0.05,13.949999999999998,0)" xlink:href="#aY"/><use transform="matrix(0.05,0,0,0.05,22.95,0)" xlink:href="#bm"/><use transform="matrix(0.05,0,0,0.05,31.950000000000003,0)" xlink:href="#bq"/><use transform="matrix(0.05,0,0,0.05,41.95,0)" xlink:href="#aX"/><use transform="matrix(0.05,0,0,0.05,51.95,0)" xlink:href="#bg"/><use transform="matrix(0.05,0,0,0.05,61.95,0)" xlink:href="#be"/><use transform="matrix(0.05,0,0,0.05,66.95,0)" xlink:href="#bf"/><use transform="matrix(0.05,0,0,0.05,76.95,0)" xlink:href="#bh"/><use transform="matrix(0.05,0,0,0.05,86.95,0)" xlink:href="#bi"/><use transform="matrix(0.05,0,0,0.05,101.9,0)" xlink:href="#bq"/><use transform="matrix(0.05,0,0,0.05,111.9,0)" xlink:href="#aX"/><use transform="matrix(0.05,0,0,0.05,121.9,0)" xlink:href="#bg"/><use transform="matrix(0.05,0,0,0.05,131.9,0)" xlink:href="#be"/></g><g id="S"><use transform="matrix(0.05,0,0,0.05,0,0)" xlink:href="#be"/><use transform="matrix(0.05,0,0,0.05,5,0)" xlink:href="#bh"/><use transform="matrix(0.05,0,0,0.05,15,0)" xlink:href="#bw"/></g><g id="T"><use transform="matrix(0.05,0,0,0.05,0,0)" xlink:href="#ba"/><use transform="matrix(0.05,0,0,0.05,5.95,0)" xlink:href="#aZ"/><use transform="matrix(0.05,0,0,0.05,15.949999999999998,0)" xlink:href="#bm"/><use transform="matrix(0.05,0,0,0.05,24.95,0)" xlink:href="#aZ"/><use transform="matrix(0.05,0,0,0.05,34.95,0)" xlink:href="#bb"/><use transform="matrix(0.05,0,0,0.05,38.900000000000006,0)" xlink:href="#bp"/><use transform="matrix(0.05,0,0,0.05,48.900000000000006,0)" xlink:href="#be"/></g><g id="U"><use transform="matrix(0.05,0,0,0.05,0,0)" xlink:href="#be"/><use transform="matrix(0.05,0,0,0.05,5,0)" xlink:href="#ba"/><use transform="matrix(0.05,0,0,0.05,10.95,0)" xlink:href="#bh"/><use transform="matrix(0.05,0,0,0.05,20.95,0)" xlink:href="#bg"/><use transform="matrix(0.05,0,0,0.05,30.950000000000003,0)" xlink:href="#aY"/><use transform="matrix(0.05,0,0,0.05,39.95,0)" xlink:href="#bh"/><use transform="matrix(0.05,0,0,0.05,49.95,0)" xlink:href="#bm"/><use transform="matrix(0.05,0,0,0.05,58.95,0)" xlink:href="#be"/><use transform="matrix(0.05,0,0,0.05,63.95,0)" xlink:href="#bb"/><use transform="matrix(0.05,0,0,0.05,67.9,0)" xlink:href="#bq"/><use transform="matrix(0.05,0,0,0.05,77.9,0)" xlink:href="#bg"/><use transform="matrix(0.05,0,0,0.05,87.9,0)" xlink:href="#bf"/><use transform="matrix(0.05,0,0,0.05,97.9,0)" xlink:href="#bb"/><use transform="matrix(0.05,0,0,0.05,101.85000000000001,0)" xlink:href="#bc"/></g><g id="V"><use transform="matrix(0.05,0,0,0.05,0,0)" xlink:href="#bc"/><use transform="matrix(0.05,0,0,0.05,10,0)" xlink:href="#bb"/><use transform="matrix(0.05,0,0,0.05,13.949999999999998,0)" xlink:href="#aY"/><use transform="matrix(0.05,0,0,0.05,22.95,0)" xlink:href="#bm"/><use transform="matrix(0.05,0,0,0.05,31.950000000000003,0)" xlink:href="#bq"/><use transform="matrix(0.05,0,0,0.05,41.95,0)" xlink:href="#aX"/><use transform="matrix(0.05,0,0,0.05,51.95,0)" xlink:href="#bg"/><use transform="matrix(0.05,0,0,0.05,61.95,0)" xlink:href="#be"/><use transform="matrix(0.05,0,0,0.05,66.95,0)" xlink:href="#bf"/><use transform="matrix(0.05,0,0,0.05,76.95,0)" xlink:href="#be"/><use transform="matrix(0.05,0,0,0.05,81.95,0)" xlink:href="#bq"/><use transform="matrix(0.05,0,0,0.05,91.95,0)" xlink:href="#be"/><use transform="matrix(0.05,0,0,0.05,96.95,0)" xlink:href="#bh"/><use transform="matrix(0.05,0,0,0.05,106.95,0)" xlink:href="#bj"/></g><g id="W"><use transform="matrix(0.05,0,0,0.05,0,0)" xlink:href="#ba"/><use transform="matrix(0.05,0,0,0.05,5.95,0)" xlink:href="#aZ"/><use transform="matrix(0.05,0,0,0.05,15.949999999999998,0)" xlink:href="#bm"/><use transform="matrix(0.05,0,0,0.05,24.95,0)" xlink:href="#aZ"/><use transform="matrix(0.05,0,0,0.05,34.95,0)" xlink:href="#bb"/><use transform="matrix(0.05,0,0,0.05,38.900000000000006,0)" xlink:href="#bp"/><use transform="matrix(0.05,0,0,0.05,48.900000000000006,0)" xlink:href="#be"/><use transform="matrix(0.05,0,0,0.05,53.900000000000006,0)" xlink:href="#bf"/><use transform="matrix(0.05,0,0,0.05,63.900000000000006,0)" xlink:href="#bb"/><use transform="matrix(0.05,0,0,0.05,67.85000000000001,0)" xlink:href="#be"/><use transform="matrix(0.05,0,0,0.05,72.85000000000001,0)" xlink:href="#aZ"/><use transform="matrix(0.05,0,0,0.05,82.85000000000001,0)" xlink:href="#bi"/></g><g id="X"><use transform="matrix(0.05,0,0,0.05,0,0)" xlink:href="#ba"/><use transform="matrix(0.05,0,0,0.05,5.95,0)" xlink:href="#aZ"/><use transform="matrix(0.05,0,0,0.05,15.949999999999998,0)" xlink:href="#bm"/><use transform="matrix(0.05,0,0,0.05,24.95,0)" xlink:href="#aZ"/><use transform="matrix(0.05,0,0,0.05,34.95,0)" xlink:href="#bb"/><use transform="matrix(0.05,0,0,0.05,38.900000000000006,0)" xlink:href="#bp"/><use transform="matrix(0.05,0,0,0.05,48.900000000000006,0)" xlink:href="#be"/><use transform="matrix(0.05,0,0,0.05,53.900000000000006,0)" xlink:href="#bf"/><use transform="matrix(0.05,0,0,0.05,63.900000000000006,0)" xlink:href="#bb"/><use transform="matrix(0.05,0,0,0.05,67.85000000000001,0)" xlink:href="#bc"/></g><g id="Y"><use transform="matrix(0.05,0,0,0.05,0,0)" xlink:href="#be"/><use transform="matrix(0.05,0,0,0.05,5,0)" xlink:href="#ba"/><use transform="matrix(0.05,0,0,0.05,10.95,0)" xlink:href="#bh"/><use transform="matrix(0.05,0,0,0.05,20.95,0)" xlink:href="#bg"/><use transform="matrix(0.05,0,0,0.05,30.950000000000003,0)" xlink:href="#aY"/><use transform="matrix(0.05,0,0,0.05,39.95,0)" xlink:href="#bh"/><use transform="matrix(0.05,0,0,0.05,49.95,0)" xlink:href="#bm"/><use transform="matrix(0.05,0,0,0.05,58.95,0)" xlink:href="#be"/><use transform="matrix(0.05,0,0,0.05,63.95,0)" xlink:href="#bb"/><use transform="matrix(0.05,0,0,0.05,67.9,0)" xlink:href="#bq"/><use transform="matrix(0.05,0,0,0.05,77.9,0)" xlink:href="#bg"/></g><path d="M206 0h-36l-40-164L89 0H53L-1-190h32L70-26l43-164h34l41 164 42-164h31" id="bx"/><g id="Z"><use transform="matrix(0.05,0,0,0.05,0,0)" xlink:href="#bp"/><use transform="matrix(0.05,0,0,0.05,10,0)" xlink:href="#bh"/><use transform="matrix(0.05,0,0,0.05,20,0)" xlink:href="#bn"/><use transform="matrix(0.05,0,0,0.05,29,0)" xlink:href="#bi"/><use transform="matrix(0.05,0,0,0.05,43.95,0)" xlink:href="#aZ"/><use transform="matrix(0.05,0,0,0.05,53.95,0)" xlink:href="#bg"/><use transform="matrix(0.05,0,0,0.05,63.95,0)" xlink:href="#be"/><use transform="matrix(0.05,0,0,0.05,68.95,0)" xlink:href="#bf"/><use transform="matrix(0.05,0,0,0.05,78.95,0)" xlink:href="#bv"/><use transform="matrix(0.05,0,0,0.05,88.95,0)" xlink:href="#bh"/><use transform="matrix(0.05,0,0,0.05,98.95,0)" xlink:href="#be"/><use transform="matrix(0.05,0,0,0.05,103.95,0)" xlink:href="#aZ"/><use transform="matrix(0.05,0,0,0.05,113.95,0)" xlink:href="#bx"/><use transform="matrix(0.05,0,0,0.05,126.9,0)" xlink:href="#bh"/><use transform="matrix(0.05,0,0,0.05,136.9,0)" xlink:href="#bn"/><use transform="matrix(0.05,0,0,0.05,145.9,0)" xlink:href="#bf"/><use transform="matrix(0.05,0,0,0.05,155.9,0)" xlink:href="#bb"/><use transform="matrix(0.05,0,0,0.05,159.85,0)" xlink:href="#bc"/></g><g id="aa"><use transform="matrix(0.05,0,0,0.05,0,0)" xlink:href="#be"/><use transform="matrix(0.05,0,0,0.05,5,0)" xlink:href="#ba"/><use transform="matrix(0.05,0,0,0.05,10.95,0)" xlink:href="#bh"/><use transform="matrix(0.05,0,0,0.05,20.95,0)" xlink:href="#bg"/><use transform="matrix(0.05,0,0,0.05,30.950000000000003,0)" xlink:href="#aY"/><use transform="matrix(0.05,0,0,0.05,39.95,0)" xlink:href="#bh"/><use transform="matrix(0.05,0,0,0.05,49.95,0)" xlink:href="#bm"/><use transform="matrix(0.05,0,0,0.05,58.95,0)" xlink:href="#be"/><use transform="matrix(0.05,0,0,0.05,63.95,0)" xlink:href="#bb"/><use transform="matrix(0.05,0,0,0.05,67.9,0)" xlink:href="#bq"/><use transform="matrix(0.05,0,0,0.05,77.9,0)" xlink:href="#bg"/><use transform="matrix(0.05,0,0,0.05,87.9,0)" xlink:href="#bf"/><use transform="matrix(0.05,0,0,0.05,97.9,0)" xlink:href="#be"/><use transform="matrix(0.05,0,0,0.05,102.9,0)" xlink:href="#bq"/><use transform="matrix(0.05,0,0,0.05,112.9,0)" xlink:href="#be"/><use transform="matrix(0.05,0,0,0.05,117.9,0)" xlink:href="#bh"/><use transform="matrix(0.05,0,0,0.05,127.9,0)" xlink:href="#bj"/></g><g id="ab"><use transform="matrix(0.05,0,0,0.05,0,0)" xlink:href="#bp"/><use transform="matrix(0.05,0,0,0.05,10,0)" xlink:href="#bh"/><use transform="matrix(0.05,0,0,0.05,20,0)" xlink:href="#bn"/><use transform="matrix(0.05,0,0,0.05,29,0)" xlink:href="#bi"/><use transform="matrix(0.05,0,0,0.05,43.95,0)" xlink:href="#aZ"/><use transform="matrix(0.05,0,0,0.05,53.95,0)" xlink:href="#bg"/><use transform="matrix(0.05,0,0,0.05,63.95,0)" xlink:href="#be"/><use transform="matrix(0.05,0,0,0.05,68.95,0)" xlink:href="#bf"/><use transform="matrix(0.05,0,0,0.05,78.95,0)" xlink:href="#bv"/><use transform="matrix(0.05,0,0,0.05,88.95,0)" xlink:href="#bh"/><use transform="matrix(0.05,0,0,0.05,98.95,0)" xlink:href="#be"/><use transform="matrix(0.05,0,0,0.05,103.95,0)" xlink:href="#aZ"/><use transform="matrix(0.05,0,0,0.05,113.95,0)" xlink:href="#bx"/><use transform="matrix(0.05,0,0,0.05,126.9,0)" xlink:href="#bh"/><use transform="matrix(0.05,0,0,0.05,136.9,0)" xlink:href="#bn"/><use transform="matrix(0.05,0,0,0.05,145.9,0)" xlink:href="#bf"/><use transform="matrix(0.05,0,0,0.05,155.9,0)" xlink:href="#be"/><use transform="matrix(0.05,0,0,0.05,160.9,0)" xlink:href="#ba"/><use transform="matrix(0.05,0,0,0.05,166.85,0)" xlink:href="#bh"/><use transform="matrix(0.05,0,0,0.05,176.85,0)" xlink:href="#bg"/><use transform="matrix(0.05,0,0,0.05,186.85,0)" xlink:href="#aY"/><use transform="matrix(0.05,0,0,0.05,195.85,0)" xlink:href="#bh"/><use transform="matrix(0.05,0,0,0.05,205.85000000000002,0)" xlink:href="#bm"/><use transform="matrix(0.05,0,0,0.05,214.85000000000002,0)" xlink:href="#be"/><use transform="matrix(0.05,0,0,0.05,219.85000000000002,0)" xlink:href="#bb"/><use transform="matrix(0.05,0,0,0.05,223.79999999999995,0)" xlink:href="#bq"/><use transform="matrix(0.05,0,0,0.05,233.79999999999995,0)" xlink:href="#bg"/><use transform="matrix(0.05,0,0,0.05,243.79999999999995,0)" xlink:href="#bf"/><use transform="matrix(0.05,0,0,0.05,253.79999999999995,0)" xlink:href="#bb"/><use transform="matrix(0.05,0,0,0.05,257.75,0)" xlink:href="#bc"/></g><g id="ac"><use transform="matrix(0.05,0,0,0.05,0,0)" xlink:href="#be"/><use transform="matrix(0.05,0,0,0.05,5,0)" xlink:href="#ba"/><use transform="matrix(0.05,0,0,0.05,10.95,0)" xlink:href="#bh"/><use transform="matrix(0.05,0,0,0.05,20.95,0)" xlink:href="#bg"/><use transform="matrix(0.05,0,0,0.05,30.950000000000003,0)" xlink:href="#aY"/><use transform="matrix(0.05,0,0,0.05,39.95,0)" xlink:href="#bh"/><use transform="matrix(0.05,0,0,0.05,49.95,0)" xlink:href="#bm"/><use transform="matrix(0.05,0,0,0.05,58.95,0)" xlink:href="#be"/><use transform="matrix(0.05,0,0,0.05,63.95,0)" xlink:href="#bb"/><use transform="matrix(0.05,0,0,0.05,67.9,0)" xlink:href="#bq"/><use transform="matrix(0.05,0,0,0.05,77.9,0)" xlink:href="#bg"/><use transform="matrix(0.05,0,0,0.05,87.9,0)" xlink:href="#bf"/><use transform="matrix(0.05,0,0,0.05,97.9,0)" xlink:href="#be"/><use transform="matrix(0.05,0,0,0.05,102.9,0)" xlink:href="#bn"/><use transform="matrix(0.05,0,0,0.05,111.9,0)" xlink:href="#bp"/><use transform="matrix(0.05,0,0,0.05,121.9,0)" xlink:href="#aZ"/></g><g id="ad"><use transform="matrix(0.05,0,0,0.05,0,0)" xlink:href="#ba"/><use transform="matrix(0.05,0,0,0.05,5.95,0)" xlink:href="#aZ"/><use transform="matrix(0.05,0,0,0.05,15.949999999999998,0)" xlink:href="#aY"/><use transform="matrix(0.05,0,0,0.05,24.95,0)" xlink:href="#bp"/><use transform="matrix(0.05,0,0,0.05,34.95,0)" xlink:href="#bq"/><use transform="matrix(0.05,0,0,0.05,44.95,0)" xlink:href="#bg"/><use transform="matrix(0.05,0,0,0.05,54.95,0)" xlink:href="#aY"/><use transform="matrix(0.05,0,0,0.05,63.95,0)" xlink:href="#aZ"/><use transform="matrix(0.05,0,0,0.05,73.95,0)" xlink:href="#bf"/><use transform="matrix(0.05,0,0,0.05,83.95,0)" xlink:href="#bm"/><use transform="matrix(0.05,0,0,0.05,92.95,0)" xlink:href="#bq"/><use transform="matrix(0.05,0,0,0.05,102.95,0)" xlink:href="#bc"/><use transform="matrix(0.05,0,0,0.05,112.95,0)" xlink:href="#aZ"/></g><g id="ae"><use transform="matrix(0.05,0,0,0.05,0,0)" xlink:href="#bq"/><use transform="matrix(0.05,0,0,0.05,10,0)" xlink:href="#ba"/><use transform="matrix(0.05,0,0,0.05,15.949999999999998,0)" xlink:href="#bc"/><use transform="matrix(0.05,0,0,0.05,25.950000000000003,0)" xlink:href="#aZ"/><use transform="matrix(0.05,0,0,0.05,35.95,0)" xlink:href="#ba"/><use transform="matrix(0.05,0,0,0.05,41.900000000000006,0)" xlink:href="#bf"/><use transform="matrix(0.05,0,0,0.05,51.900000000000006,0)" xlink:href="#bb"/><use transform="matrix(0.05,0,0,0.05,55.85,0)" xlink:href="#be"/><use transform="matrix(0.05,0,0,0.05,60.85,0)" xlink:href="#aZ"/><use transform="matrix(0.05,0,0,0.05,70.85000000000001,0)" xlink:href="#bi"/></g><g id="af"><use transform="matrix(0.05,0,0,0.05,0,0)" xlink:href="#bq"/><use transform="matrix(0.05,0,0,0.05,10,0)" xlink:href="#ba"/><use transform="matrix(0.05,0,0,0.05,15.949999999999998,0)" xlink:href="#bc"/><use transform="matrix(0.05,0,0,0.05,25.950000000000003,0)" xlink:href="#aZ"/><use transform="matrix(0.05,0,0,0.05,35.95,0)" xlink:href="#ba"/><use transform="matrix(0.05,0,0,0.05,41.900000000000006,0)" xlink:href="#bf"/><use transform="matrix(0.05,0,0,0.05,51.900000000000006,0)" xlink:href="#bb"/><use transform="matrix(0.05,0,0,0.05,55.85,0)" xlink:href="#bc"/></g><g id="ag"><use transform="matrix(0.05,0,0,0.05,0,0)" xlink:href="#aY"/><use transform="matrix(0.05,0,0,0.05,9,0)" xlink:href="#br"/><use transform="matrix(0.05,0,0,0.05,19,0)" xlink:href="#bb"/><use transform="matrix(0.05,0,0,0.05,22.95,0)" xlink:href="#bp"/><use transform="matrix(0.05,0,0,0.05,32.95,0)" xlink:href="#bi"/><use transform="matrix(0.05,0,0,0.05,47.900000000000006,0)" xlink:href="#aZ"/><use transform="matrix(0.05,0,0,0.05,57.900000000000006,0)" xlink:href="#bg"/><use transform="matrix(0.05,0,0,0.05,67.9,0)" xlink:href="#be"/><use transform="matrix(0.05,0,0,0.05,72.9,0)" xlink:href="#bf"/><use transform="matrix(0.05,0,0,0.05,82.9,0)" xlink:href="#bb"/><use transform="matrix(0.05,0,0,0.05,86.85000000000001,0)" xlink:href="#bc"/></g><g id="ah"><use transform="matrix(0.05,0,0,0.05,0,0)" xlink:href="#aZ"/><use transform="matrix(0.05,0,0,0.05,10,0)" xlink:href="#bw"/><use transform="matrix(0.05,0,0,0.05,19,0)" xlink:href="#bp"/><use transform="matrix(0.05,0,0,0.05,29,0)" xlink:href="#aZ"/><use transform="matrix(0.05,0,0,0.05,39,0)" xlink:href="#bm"/><use transform="matrix(0.05,0,0,0.05,48,0)" xlink:href="#be"/><use transform="matrix(0.05,0,0,0.05,53,0)" xlink:href="#aZ"/><use transform="matrix(0.05,0,0,0.05,63,0)" xlink:href="#bc"/><use transform="matrix(0.05,0,0,0.05,73,0)" xlink:href="#bf"/><use transform="matrix(0.05,0,0,0.05,83,0)" xlink:href="#bh"/><use transform="matrix(0.05,0,0,0.05,93,0)" xlink:href="#ba"/><use transform="matrix(0.05,0,0,0.05,98.95,0)" xlink:href="#ba"/><use transform="matrix(0.05,0,0,0.05,104.9,0)" xlink:href="#bb"/><use transform="matrix(0.05,0,0,0.05,108.85000000000001,0)" xlink:href="#bs"/><use transform="matrix(0.05,0,0,0.05,117.85000000000001,0)" xlink:href="#bh"/><use transform="matrix(0.05,0,0,0.05,127.85000000000001,0)" xlink:href="#bj"/><use transform="matrix(0.05,0,0,0.05,131.8,0)" xlink:href="#bf"/><use transform="matrix(0.05,0,0,0.05,141.8,0)" xlink:href="#bc"/><use transform="matrix(0.05,0,0,0.05,151.8,0)" xlink:href="#bh"/><use transform="matrix(0.05,0,0,0.05,161.8,0)" xlink:href="#be"/><use transform="matrix(0.05,0,0,0.05,166.8,0)" xlink:href="#aZ"/></g><g id="ai"><use transform="matrix(0.05,0,0,0.05,0,0)" xlink:href="#bp"/><use transform="matrix(0.05,0,0,0.05,10,0)" xlink:href="#ba"/><use transform="matrix(0.05,0,0,0.05,15.949999999999998,0)" xlink:href="#bq"/><use transform="matrix(0.05,0,0,0.05,25.950000000000003,0)" xlink:href="#bc"/><use transform="matrix(0.05,0,0,0.05,35.95,0)" xlink:href="#aX"/><use transform="matrix(0.05,0,0,0.05,45.95,0)" xlink:href="#bm"/><use transform="matrix(0.05,0,0,0.05,54.95,0)" xlink:href="#be"/></g><g id="aj"><use transform="matrix(0.05,0,0,0.05,0,0)" xlink:href="#bp"/><use transform="matrix(0.05,0,0,0.05,10,0)" xlink:href="#ba"/><use transform="matrix(0.05,0,0,0.05,15.949999999999998,0)" xlink:href="#bq"/><use transform="matrix(0.05,0,0,0.05,25.950000000000003,0)" xlink:href="#bc"/><use transform="matrix(0.05,0,0,0.05,35.95,0)" xlink:href="#aX"/><use transform="matrix(0.05,0,0,0.05,45.95,0)" xlink:href="#bm"/><use transform="matrix(0.05,0,0,0.05,54.95,0)" xlink:href="#be"/><use transform="matrix(0.05,0,0,0.05,59.95,0)" xlink:href="#bf"/><use transform="matrix(0.05,0,0,0.05,69.95,0)" xlink:href="#bg"/><use transform="matrix(0.05,0,0,0.05,79.95,0)" xlink:href="#bh"/><use transform="matrix(0.05,0,0,0.05,89.95,0)" xlink:href="#bi"/><use transform="matrix(0.05,0,0,0.05,104.9,0)" xlink:href="#aZ"/></g><g id="ak"><use transform="matrix(0.05,0,0,0.05,0,0)" xlink:href="#bp"/><use transform="matrix(0.05,0,0,0.05,10,0)" xlink:href="#ba"/><use transform="matrix(0.05,0,0,0.05,15.949999999999998,0)" xlink:href="#bq"/><use transform="matrix(0.05,0,0,0.05,25.950000000000003,0)" xlink:href="#bc"/><use transform="matrix(0.05,0,0,0.05,35.95,0)" xlink:href="#aX"/><use transform="matrix(0.05,0,0,0.05,45.95,0)" xlink:href="#bm"/><use transform="matrix(0.05,0,0,0.05,54.95,0)" xlink:href="#be"/><use transform="matrix(0.05,0,0,0.05,59.95,0)" xlink:href="#bf"/><use transform="matrix(0.05,0,0,0.05,69.95,0)" xlink:href="#bc"/><use transform="matrix(0.05,0,0,0.05,79.95,0)" xlink:href="#aZ"/><use transform="matrix(0.05,0,0,0.05,89.95,0)" xlink:href="#aY"/><use transform="matrix(0.05,0,0,0.05,98.95,0)" xlink:href="#bm"/><use transform="matrix(0.05,0,0,0.05,107.95,0)" xlink:href="#ba"/><use transform="matrix(0.05,0,0,0.05,113.9,0)" xlink:href="#bb"/><use transform="matrix(0.05,0,0,0.05,117.85000000000001,0)" xlink:href="#bp"/><use transform="matrix(0.05,0,0,0.05,127.85000000000001,0)" xlink:href="#be"/><use transform="matrix(0.05,0,0,0.05,132.85000000000002,0)" xlink:href="#bb"/><use transform="matrix(0.05,0,0,0.05,136.8,0)" xlink:href="#bq"/><use transform="matrix(0.05,0,0,0.05,146.8,0)" xlink:href="#bg"/></g><path d="M143 0L79-87 56-68V0H24v-261h32v163l83-92h37l-77 82L181 0h-38" id="by"/><g id="al"><use transform="matrix(0.05,0,0,0.05,0,0)" xlink:href="#bp"/><use transform="matrix(0.05,0,0,0.05,10,0)" xlink:href="#ba"/><use transform="matrix(0.05,0,0,0.05,15.949999999999998,0)" xlink:href="#bq"/><use transform="matrix(0.05,0,0,0.05,25.950000000000003,0)" xlink:href="#bc"/><use transform="matrix(0.05,0,0,0.05,35.95,0)" xlink:href="#aX"/><use transform="matrix(0.05,0,0,0.05,45.95,0)" xlink:href="#bm"/><use transform="matrix(0.05,0,0,0.05,54.95,0)" xlink:href="#be"/><use transform="matrix(0.05,0,0,0.05,59.95,0)" xlink:href="#bf"/><use transform="matrix(0.05,0,0,0.05,69.95,0)" xlink:href="#aY"/><use transform="matrix(0.05,0,0,0.05,78.95,0)" xlink:href="#by"/><use transform="matrix(0.05,0,0,0.05,87.95,0)" xlink:href="#aX"/></g></defs></g></svg>